<!-- icon666.com - MILLIONS OF FREE VECTOR ICONS --><svg version="1.1" id="Layer_1" xmlns="http://www.w3.org/2000/svg" xmlns:xlink="http://www.w3.org/1999/xlink" x="0px" y="0px" viewBox="0 0 512 512" style="enable-background:new 0 0 512 512;" xml:space="preserve"><circle style="fill:#F94848;" cx="61.281" cy="369.189" r="52.48"></circle><path style="fill:#DD2C2C;" d="M47.095,369.186c0-22.226,13.824-41.211,33.336-48.862c-5.933-2.327-12.386-3.618-19.145-3.618 c-28.984,0-52.48,23.496-52.48,52.48c0,28.984,23.496,52.48,52.48,52.48c6.758,0,13.211-1.292,19.145-3.618 C60.919,410.397,47.095,391.412,47.095,369.186z"></path><circle style="fill:#F94848;" cx="116.731" cy="341.569" r="52.48"></circle><path style="fill:#DD2C2C;" d="M102.537,341.575c0-22.226,13.824-41.211,33.336-48.862c-5.933-2.327-12.386-3.618-19.145-3.618 c-28.984,0-52.48,23.496-52.48,52.48c0,28.984,23.496,52.48,52.48,52.48c6.758,0,13.211-1.292,19.145-3.618 C116.359,382.785,102.537,363.801,102.537,341.575z"></path><circle style="fill:#F94848;" cx="161.234" cy="213.012" r="52.48"></circle><path style="fill:#DD2C2C;" d="M147.041,213.009c0-22.226,13.824-41.211,33.336-48.862c-5.933-2.327-12.386-3.618-19.145-3.618 c-28.984,0-52.48,23.496-52.48,52.48s23.496,52.48,52.48,52.48c6.758,0,13.211-1.292,19.145-3.618 C160.865,254.219,147.041,235.235,147.041,213.009z"></path><circle style="fill:#F94848;" cx="233.849" cy="273.741" r="52.48"></circle><path style="fill:#DD2C2C;" d="M219.66,273.744c0-22.226,13.824-41.211,33.336-48.862c-5.933-2.327-12.386-3.618-19.145-3.618 c-28.984,0-52.48,23.496-52.48,52.48c0,28.984,23.496,52.48,52.48,52.48c6.758,0,13.211-1.292,19.145-3.618 C233.483,314.954,219.66,295.969,219.66,273.744z"></path><circle style="fill:#F94848;" cx="175.76" cy="416.344" r="52.48"></circle><path style="fill:#DD2C2C;" d="M161.565,416.34c0-22.226,13.824-41.211,33.336-48.862c-5.933-2.327-12.386-3.618-19.145-3.618 c-28.984,0-52.48,23.496-52.48,52.48c0,28.984,23.496,52.48,52.48,52.48c6.758,0,13.211-1.292,19.145-3.618 C175.389,457.551,161.565,438.566,161.565,416.34z"></path><circle style="fill:#F94848;" cx="440.267" cy="416.344" r="52.48"></circle><path style="fill:#DD2C2C;" d="M426.075,416.34c0-22.226,13.824-41.211,33.336-48.862c-5.933-2.327-12.386-3.618-19.145-3.618 c-28.984,0-52.48,23.496-52.48,52.48c0,28.984,23.496,52.48,52.48,52.48c6.758,0,13.211-1.292,19.145-3.618 C439.899,457.551,426.075,438.566,426.075,416.34z"></path><circle style="fill:#F94848;" cx="377.379" cy="287.445" r="52.48"></circle><path style="fill:#DD2C2C;" d="M363.19,287.441c0-22.226,13.824-41.211,33.336-48.862c-5.933-2.327-12.386-3.618-19.145-3.618 c-28.984,0-52.48,23.496-52.48,52.48c0,28.984,23.496,52.48,52.48,52.48c6.758,0,13.211-1.292,19.145-3.618 C377.014,328.651,363.19,309.666,363.19,287.441z"></path><circle style="fill:#F94848;" cx="351.355" cy="416.344" r="52.48"></circle><path style="fill:#DD2C2C;" d="M337.17,416.34c0-22.226,13.824-41.211,33.336-48.862c-5.933-2.327-12.386-3.618-19.145-3.618 c-28.984,0-52.48,23.496-52.48,52.48c0,28.984,23.496,52.48,52.48,52.48c6.758,0,13.211-1.292,19.145-3.618 C350.992,457.551,337.17,438.566,337.17,416.34z"></path><circle style="fill:#F94848;" cx="89" cy="430.036" r="52.48"></circle><path style="fill:#DD2C2C;" d="M74.809,430.037c0-22.226,13.824-41.211,33.336-48.862c-5.933-2.327-12.386-3.618-19.145-3.618 c-28.984,0-52.48,23.496-52.48,52.48c0,28.984,23.496,52.48,52.48,52.48c6.758,0,13.211-1.292,19.145-3.618 C88.633,471.248,74.809,452.263,74.809,430.037z"></path><path d="M99.18,368.365c3.997,0,7.547-2.796,8.526-6.66c1.982-7.809-7.198-13.983-13.703-9.26c-3.056,2.22-4.369,6.295-3.177,9.88 C92.01,365.891,95.416,368.365,99.18,368.365z"></path><path d="M143.683,239.796c4.398,0,8.174-3.367,8.728-7.718c0.976-7.664-8.112-12.668-14.144-8.015 c-3.082,2.377-4.21,6.712-2.715,10.299C136.909,237.619,140.151,239.796,143.683,239.796z"></path><path d="M251.403,300.537c4.155,0,7.806-3.031,8.624-7.087c0.726-3.608-0.962-7.372-4.108-9.263 c-3.347-2.013-7.759-1.503-10.589,1.173C239.665,290.72,243.649,300.537,251.403,300.537z"></path><path d="M193.301,443.128c4.635,0,8.565-3.74,8.789-8.368c0.385-7.957-9.63-12.246-15.127-6.525 C181.688,433.725,185.717,443.128,193.301,443.128z"></path><path d="M452.928,427.018c-3.185,2.101-4.649,6.225-3.53,9.869c1.126,3.668,4.579,6.241,8.423,6.241 c3.915,0,7.416-2.684,8.469-6.447C468.456,428.94,459.549,422.651,452.928,427.018z"></path><path d="M389.082,298.856c-5.952,5.274-2.034,15.374,5.85,15.374c4.321,0,8.073-3.264,8.703-7.526 C404.815,298.738,395.078,293.543,389.082,298.856z"></path><path d="M328.639,427.214c-3.066,2.209-4.371,6.299-3.177,9.877c1.19,3.569,4.589,6.037,8.355,6.037 c4.156,0,7.795-3.013,8.625-7.075C344.016,428.329,334.972,422.649,328.639,427.214z"></path><path d="M66.854,440.526c-3.366,2.049-4.979,6.284-3.821,10.054c1.122,3.654,4.576,6.253,8.411,6.253 c3.921,0,7.425-2.693,8.481-6.459C82.045,442.8,73.494,436.486,66.854,440.526z"></path><path d="M505.814,348.524l-14.407-4.487l7.873-9.071c3.185-3.67,2.792-9.228-0.878-12.413c-3.669-3.185-9.227-2.794-12.413,0.878 l-29.388,33.858c-5.205-1.441-10.678-2.227-16.335-2.227c-4.552,0-9.012,0.523-13.337,1.478l-16.198-17.728 c16.793-10.942,27.927-29.873,27.927-51.368c0-6.208-0.927-12.338-2.756-18.219c-1.443-4.64-6.375-7.235-11.016-5.79 c-4.642,1.443-7.233,6.375-5.791,11.016c1.302,4.187,1.963,8.559,1.963,12.993c0,24.085-19.595,43.681-43.681,43.681 c-24.085,0-43.681-19.595-43.681-43.681s19.594-43.681,43.681-43.681c11.667,0,22.638,4.544,30.888,12.794 c3.435,3.438,9.007,3.434,12.444,0c3.437-3.437,3.437-9.009-0.001-12.444c-10.561-10.562-24.304-16.776-39.064-17.785 l-44.396-53.506h11.468c4.861,0,8.8-3.94,8.8-8.8s-3.939-8.8-8.8-8.8h-26.071l-32.467-39.129V78.422l94.201,29.438 c0.874,0.272,1.758,0.402,2.627,0.402c3.746,0,7.22-2.412,8.396-6.177c1.45-4.639-1.136-9.574-5.774-11.024l-38.17-11.929 l7.686-5.545c3.94-2.843,4.83-8.343,1.986-12.284c-2.844-3.942-8.344-4.83-12.286-1.988L330.47,72.573l-40.293-12.592V29.482 c0-4.86-3.939-8.8-8.8-8.8c-4.861,0-8.8,3.94-8.8,8.8v6.229l-56.271,25.705l-26.291-12.189c-4.408-2.045-9.64-0.127-11.685,4.281 c-2.044,4.409-0.126,9.641,4.283,11.685l12.618,5.85l-24.456,11.171c-4.421,2.019-6.367,7.239-4.348,11.66 c1.478,3.236,4.671,5.146,8.01,5.146c1.223,0,2.466-0.257,3.65-0.798l45.546-20.805l-4.013,13.813 c-1.355,4.667,1.328,9.549,5.994,10.905c0.82,0.238,1.646,0.352,2.46,0.352c3.813,0,7.328-2.5,8.445-6.348l8.244-28.376 l27.813-12.706v61.362l-6.729,9.322l-22.466-0.749c-4.836-0.171-8.925,3.643-9.088,8.502c-0.162,4.857,3.644,8.926,8.502,9.088 l10.642,0.354l-34.911,48.363c-8.784-23.103-31.149-39.571-57.296-39.571c-33.791,0-61.28,27.49-61.28,61.281 c0,21.705,11.352,40.795,28.421,51.686l-15.463,15.726c-3.339,0.205-6.622,0.682-9.824,1.408l-6.981-2.697l3.208-16.684 c0.918-4.773-2.208-9.385-6.98-10.303c-4.772-0.915-9.385,2.207-10.303,6.98l-2.607,13.561l-12.565-4.855 c-4.534-1.751-9.628,0.505-11.38,5.037c-1.752,4.534,0.503,9.628,5.037,11.38l20.122,7.775 c-7.538,5.493-13.862,12.738-18.347,21.376c-4.474,8.641-6.839,18.382-6.839,28.168c0,11.577,3.208,22.663,9.173,32.259 c-4.968,2.162-9.591,4.967-13.772,8.305c-2.836-3.776-8.651-5.202-12.83-1.647c-4.751,4.04-3.478,11.111,1.05,14.089 c-1.948,2.734-3.685,5.626-5.17,8.666c-10.226-8.174-16.301-20.53-16.301-34.051c0-19.222,12.857-36.45,31.265-41.895 c4.661-1.379,7.321-6.274,5.943-10.934c-1.38-4.66-6.277-7.32-10.934-5.942C18.042,318.058,0,342.225,0,369.189 c0,21.299,10.726,40.548,28.402,51.727c-0.446,2.978-0.682,6.023-0.682,9.121c0,33.79,27.49,61.28,61.28,61.28 c20.321,0,38.797-10.127,50.032-25.949c10.522,7.872,23.407,12.256,36.729,12.256c33.791,0,61.28-27.49,61.28-61.281 c0-28.129-19.055-51.874-44.93-59.048l20.466-26.033c6.704,2.472,13.875,3.763,21.273,3.763c3.942,0,7.794-0.388,11.531-1.103 l3.488,31.883c0.493,4.507,4.305,7.843,8.736,7.843c0.318,0,0.643-0.018,0.967-0.053c4.832-0.529,8.32-4.874,7.791-9.704 l-1.359-12.424h12.417c4.861,0,8.8-3.94,8.8-8.8c0-4.86-3.939-8.8-8.8-8.8h-14.342l-0.65-5.939 c19.429-10.289,32.702-30.711,32.702-54.185c0-33.79-27.49-61.28-61.28-61.28c-3.201,0-6.344,0.249-9.415,0.724l24.314-33.683 l3.036,10.799c1.091,3.882,4.622,6.42,8.466,6.42c0.788,0,1.59-0.107,2.386-0.331c4.678-1.316,7.405-6.175,6.088-10.853 l-6.822-24.26l19.959-27.65l56.697,68.33l-5.899,14.293c-1.854,4.493,0.284,9.637,4.776,11.491c1.098,0.453,2.235,0.668,3.353,0.668 c3.457,0,6.736-2.051,8.138-5.444l2.347-5.685l9.321,11.233c-25.654,7.318-44.498,30.954-44.498,58.925 c0,32.909,26.078,59.832,58.653,61.213l-7.178,8.599c-5.168-1.42-10.602-2.194-16.215-2.194c-33.791,0-61.28,27.49-61.28,61.28 s27.49,61.28,61.28,61.28c17.468,0,33.241-7.359,44.414-19.126c11.457,12.137,27.389,19.128,44.495,19.128 c33.791,0,61.281-27.49,61.281-61.281c0-21.6-11.244-40.611-28.176-51.528l5.438-6.265l21.768,6.779 c0.872,0.271,1.753,0.4,2.619,0.4c3.75,0,7.225-2.417,8.4-6.186C513.045,354.902,510.455,349.968,505.814,348.524z M117.552,213.012 c0-24.087,19.595-43.682,43.681-43.682c24.087,0,43.682,19.595,43.682,43.682c0,2.37-0.211,4.728-0.59,7.054 c-13.316,7.354-23.608,19.519-28.54,34.132c-4.66,1.648-9.537,2.494-14.551,2.494C137.149,256.693,117.552,237.098,117.552,213.012z M73.051,341.569c0-7.083,1.638-13.838,4.864-20.068c7.558-14.558,22.431-23.602,38.816-23.602c24.087,0,43.682,19.59,43.682,43.67 c0,5.699-1.082,11.187-3.187,16.372c-12.737,4.027-23.74,12.087-31.462,22.986c-10.326-7.725-23.1-12.171-36.765-12.171 c-2.096,0-4.166,0.107-6.209,0.313C76.482,361.321,73.051,351.704,73.051,341.569z M219.441,416.344 c0,24.087-19.595,43.682-43.681,43.682c-10.543,0-20.705-3.848-28.599-10.683c0.752-2.263,1.388-4.584,1.875-6.965l-17.242-3.528 c-4.134,20.204-22.132,34.868-42.795,34.868c-24.085,0-43.681-19.595-43.681-43.681c0-24.085,19.594-43.681,43.681-43.681 c4.109,0,8.103,0.567,11.903,1.631c-0.174,0.226-0.336,0.462-0.486,0.706c-0.052,0.086-0.107,0.169-0.155,0.256 c-0.737,1.287-1.165,2.774-1.165,4.363c0,4.349,3.157,7.951,7.303,8.664c0.054,0.009,0.108,0.016,0.162,0.025 c0.436,0.067,0.88,0.111,1.335,0.111h0.013c0.277,0,0.55-0.015,0.821-0.041c0.171-0.016,0.339-0.045,0.507-0.07 c0.086-0.013,0.171-0.023,0.256-0.039c0.237-0.043,0.468-0.097,0.698-0.16c0.001,0,0.002,0,0.004,0 c2.47-0.664,4.503-2.372,5.606-4.627c0.02-0.041,0.04-0.082,0.06-0.123c0.082-0.174,0.16-0.35,0.23-0.53 c0.04-0.1,0.075-0.202,0.11-0.303c0.039-0.111,0.082-0.221,0.117-0.334c6.624,5.297,11.713,12.552,14.388,21.123l16.799-5.243 c-2.07-6.634-5.177-12.7-9.1-18.059c6.052-9.975,15.79-17.137,27.203-19.851c3.293-0.788,6.709-1.19,10.151-1.19 C199.846,372.662,219.441,392.257,219.441,416.344z M277.531,273.744c0,24.085-19.595,43.682-43.681,43.682 c-12.118,0-23.384-4.848-31.72-13.651c-3.343-3.53-8.914-3.681-12.44-0.338c-3.529,3.342-3.681,8.911-0.338,12.44 c2.368,2.5,4.911,4.76,7.591,6.796l-19.208,24.433c0.168-1.84,0.278-3.685,0.278-5.534c0-27.43-18.125-50.709-43.029-58.493 l10.628-10.808c4.99,1.316,10.224,2.025,15.622,2.025c3.847,0,7.633-0.372,11.349-1.068c-0.001,0.174-0.013,0.345-0.013,0.519 c0,5.683,0.779,11.315,2.316,16.737c1.325,4.676,6.189,7.393,10.866,6.067c4.676-1.325,7.392-6.189,6.067-10.866 c-1.095-3.861-1.648-7.878-1.648-11.938c0-24.085,19.594-43.681,43.681-43.681S277.531,249.658,277.531,273.744z M396.825,349.677 l12.541,13.728c-4.984,2.911-9.568,6.521-13.59,10.781c-3.425-3.607-7.281-6.796-11.489-9.488L396.825,349.677z M351.361,460.021 c-24.085,0-43.681-19.595-43.681-43.681c0-24.085,19.595-43.681,43.681-43.681s43.681,19.595,43.681,43.681 C395.041,440.425,375.446,460.021,351.361,460.021z M483.951,416.341c0,24.087-19.595,43.682-43.682,43.682 c-13.417,0-25.82-6.041-34.079-16.363c4.118-8.232,6.451-17.507,6.451-27.321c0-9.813-2.331-19.087-6.45-27.319 c8.26-10.32,20.661-16.362,34.078-16.362C464.356,372.659,483.951,392.255,483.951,416.341z"></path></svg>