<!-- icon666.com - MILLIONS OF FREE VECTOR ICONS --><svg id="icons" viewBox="0 0 64 64" xmlns="http://www.w3.org/2000/svg"><path d="m44 16.12a6.27858 6.27858 0 0 1 2.66 1.16 5.85484 5.85484 0 0 1 .84.77 6.56336 6.56336 0 0 1 1.5 3.97v1a6.0052 6.0052 0 0 1 -.36 2.03 6.08976 6.08976 0 0 1 -2.4 3.01 6.38293 6.38293 0 0 1 -3.05.95 1.1483 1.1483 0 0 1 -.19.01 5.033 5.033 0 0 1 -.64-.04 6.70819 6.70819 0 0 1 -2.1-.63 7.20124 7.20124 0 0 1 -2.79-2.87l-.01-.01a4.34909 4.34909 0 0 0 .25-.63 5.781 5.781 0 0 0 .29-1.82v-1a6.11358 6.11358 0 0 0 -.19-1.5 4.87236 4.87236 0 0 0 -.31-.89 6.42354 6.42354 0 0 1 5.5-3.61 5.44608 5.44608 0 0 1 1 .1z" fill="#ff5666"></path><path d="m37.47 25.48a7.20124 7.20124 0 0 0 2.79 2.87 6.70819 6.70819 0 0 0 2.1.63 5.033 5.033 0 0 0 .64.04 1.1483 1.1483 0 0 0 .19-.01 5.82081 5.82081 0 0 1 .81 2.99v1a5.97349 5.97349 0 0 1 -.35 2.03.363.363 0 0 1 -.03.07 5.74916 5.74916 0 0 1 -.62 1.21 5.99638 5.99638 0 0 1 -1.4 1.49 6.13592 6.13592 0 0 1 -3.6 1.2 5.46773 5.46773 0 0 1 -1.79-.27 6.0333 6.0333 0 0 1 -2.42-1.45v-.01h-.01a5.99056 5.99056 0 0 1 -1.78-4.27v-1a5.80676 5.80676 0 0 1 .84-3.04 5.96682 5.96682 0 0 0 4.62-3.49z" fill="#f3445a"></path><path d="m43 16.02a6.42354 6.42354 0 0 0 -5.5 3.61c-.07-.18-.15-.33-.22-.47.77-1.6 2.9-6.34 2.72-10.5-.03-.72-.12-1.44-.12-1.44.43-.33 1.02-.73 1.73-1.18a20.131 20.131 0 0 1 4.63-2.26 16.86737 16.86737 0 0 1 5.1-.78h3.66l-3.9 2.93a19.60663 19.60663 0 0 0 -6.18 7.76c-.31.81-.61 1.62-.92 2.43a5.44608 5.44608 0 0 0 -1-.1z" fill="#80bf4d"></path><path d="m31 51c-.03-.36-.07-.73-.1-1.09a6.76722 6.76722 0 0 0 2.2 0c-.01.05-.02.12-.03.19a5.29336 5.29336 0 0 0 -.07.9v1a6.01342 6.01342 0 0 0 4.93 5.91 5.99931 5.99931 0 0 1 -11.86 0 6.00393 6.00393 0 0 0 4.93-5.91z" fill="#ff5666"></path><path d="m30.97 11.89c-.32.39-.64.79-.96 1.18-.34-.39-.67-.78-1.01-1.17v-10.9h4v8.4z" fill="#80bf4d"></path><path d="m30.9 49.91a6.0219 6.0219 0 0 1 -4.8-4.81 5.5563 5.5563 0 0 1 -.1-1.1v-1a5.9758 5.9758 0 0 1 1.79-4.27 6.0333 6.0333 0 0 0 2.42-1.45v-.01h.01a6.00241 6.00241 0 0 1 3.56 0h.01v.01a6.0333 6.0333 0 0 0 2.42 1.45c.01.02.02.02.03.03a5.97924 5.97924 0 0 1 1.76 4.24v1a5.5563 5.5563 0 0 1 -.1 1.1 6.0219 6.0219 0 0 1 -4.8 4.81 6.76722 6.76722 0 0 1 -2.2 0z" fill="#ff5666"></path><path d="m31.16 28.96a5.99534 5.99534 0 0 1 -4.66-3.56 5.19632 5.19632 0 0 1 -.21-.55 5.89013 5.89013 0 0 1 -.29-1.83v-1a5.99329 5.99329 0 0 1 .5-2.4 3.54821 3.54821 0 0 1 .21-.44 6.00323 6.00323 0 0 1 5.29-3.16 4.62018 4.62018 0 0 1 .58.03 5.81234 5.81234 0 0 1 1.77.44 6.25239 6.25239 0 0 1 2.93 2.67c.07.14.15.29.22.47a4.87236 4.87236 0 0 1 .31.89 6.11358 6.11358 0 0 1 .19 1.5v1a5.781 5.781 0 0 1 -.29 1.82 4.34909 4.34909 0 0 1 -.25.63 5.96682 5.96682 0 0 1 -4.62 3.49 5.91 5.91 0 0 1 -1.68 0z" fill="#ff5666"></path><path d="m32 16.02a6.00323 6.00323 0 0 0 -5.29 3.16 3.54821 3.54821 0 0 0 -.21.44 5.97164 5.97164 0 0 0 -4.93-3.57v-.01a20.54011 20.54011 0 0 1 -.8-2.56 18.57168 18.57168 0 0 1 -.48-6.82 17.24039 17.24039 0 0 1 1.71-5.66l2.12 4.25c.71 1.1 1.41 2.19 2.12 3.28l2.76 3.36v.01c.34.39.67.78 1.01 1.17.86.99 1.72 1.98 2.57 2.97v.01a4.62018 4.62018 0 0 0 -.58-.03z" fill="#a0d964"></path><path d="m32 29.02a7.545 7.545 0 0 0 .84-.06 5.80676 5.80676 0 0 0 -.84 3.04 5.80676 5.80676 0 0 0 -.84-3.04 7.545 7.545 0 0 0 .84.06z" fill="#f3445a"></path><path d="m58 22.02v1a5.9711 5.9711 0 0 1 -4.88 5.88 5.42726 5.42726 0 0 1 -.68.09 5.938 5.938 0 0 1 -2.86-.6 9.00553 9.00553 0 0 1 -2.17-1.32 6.17014 6.17014 0 0 0 1.23-2.02 6.0052 6.0052 0 0 0 .36-2.03v-1a6.56336 6.56336 0 0 0 -1.5-3.97 6.05094 6.05094 0 0 1 6.86-1.56 6.22917 6.22917 0 0 1 3.16 3.17 5.99016 5.99016 0 0 1 .48 2.36z" fill="#ff5666"></path><path d="m53.12 28.9a5.86588 5.86588 0 0 1 .88 3.1v1a5.99561 5.99561 0 0 1 -5.56 5.98 3.16782 3.16782 0 0 1 -.44.02 5.91623 5.91623 0 0 1 -5-2.69 5.74916 5.74916 0 0 0 .62-1.21.363.363 0 0 0 .03-.07 5.97349 5.97349 0 0 0 .35-2.03v-1a5.82081 5.82081 0 0 0 -.81-2.99 6.38293 6.38293 0 0 0 3.05-.95 6.21 6.21 0 0 0 1.17-.99 9.00553 9.00553 0 0 0 2.17 1.32 5.938 5.938 0 0 0 2.86.6 5.42726 5.42726 0 0 0 .68-.09z" fill="#f3445a"></path><path d="m44.9 49.92a5.63882 5.63882 0 0 1 .1 1.08v1a5.99835 5.99835 0 0 1 -6 6 5.33021 5.33021 0 0 1 -1.07-.09 6.01342 6.01342 0 0 1 -4.93-5.91v-1a5.29336 5.29336 0 0 1 .07-.9c.01-.07.02-.14.03-.19a6.0219 6.0219 0 0 0 4.8-4.81 5.5563 5.5563 0 0 0 .1-1.1 5.86678 5.86678 0 0 0 .81 3.01 6.00031 6.00031 0 0 0 5.19 2.99h.19c.24-.02.48-.04.71-.08z" fill="#f3445a"></path><path d="m44.9 49.92c-.23.04-.47.06-.71.08h-.19a6.00031 6.00031 0 0 1 -5.19-2.99 5.86678 5.86678 0 0 1 -.81-3.01v-5a6.13592 6.13592 0 0 0 3.6-1.2 5.99638 5.99638 0 0 0 1.4-1.49 5.91623 5.91623 0 0 0 5 2.69 3.16782 3.16782 0 0 0 .44-.02 5.96937 5.96937 0 0 1 1.56 4.02v1a5.98148 5.98148 0 0 1 -5.1 5.92z" fill="#ff5666"></path><path d="m16.95 15.65-.87-1.96a19.60663 19.60663 0 0 0 -6.18-7.76l-3.9-2.93h2.87a19.65837 19.65837 0 0 1 11.42 3.66 18.57168 18.57168 0 0 0 .48 6.82 20.54011 20.54011 0 0 0 .8 2.56v.01a5.44125 5.44125 0 0 0 -.57-.03 5.83766 5.83766 0 0 0 -3.41 1.08l-.01-.01z" fill="#8fcd5a"></path><path d="m16.53 26.99a5.93152 5.93152 0 0 0 4.28 2v.01a5.884 5.884 0 0 0 -.81 3v1a6.026 6.026 0 0 0 .09 1.05 5.59417 5.59417 0 0 0 .29 1.05 6.08681 6.08681 0 0 0 .62 1.22 6.474 6.474 0 0 1 -2.72 2.24 6.48845 6.48845 0 0 1 -2.28.44 3.16782 3.16782 0 0 1 -.44-.02 5.99561 5.99561 0 0 1 -5.56-5.98v-1a5.858 5.858 0 0 1 .87-3.1 5.05616 5.05616 0 0 0 .68.09c.15.01.3.03.45.03a6.72161 6.72161 0 0 0 1.44-.18 7.686 7.686 0 0 0 3.08-1.84z" fill="#f3445a"></path><path d="m26.29 24.85a5.19632 5.19632 0 0 0 .21.55 5.99308 5.99308 0 0 1 -5.5 3.6 1.2102 1.2102 0 0 1 -.19-.01 6.00925 6.00925 0 0 1 -5.81-5.99v-.98a5.926 5.926 0 0 1 1.51-3.97 5.1173 5.1173 0 0 1 1.08-.95 5.83766 5.83766 0 0 1 3.41-1.08 5.44125 5.44125 0 0 1 .57.03 5.97164 5.97164 0 0 1 4.93 3.57 5.99329 5.99329 0 0 0 -.5 2.4v1a5.89013 5.89013 0 0 0 .29 1.83z" fill="#ff5666"></path><path d="m13.44 28.84a6.72161 6.72161 0 0 1 -1.44.18c-.15 0-.3-.02-.45-.03a5.05616 5.05616 0 0 1 -.68-.09 5.9815 5.9815 0 0 1 -4.87-5.88v-1a6.00475 6.00475 0 0 1 6-6 6.17157 6.17157 0 0 1 2.36.47 6.41117 6.41117 0 0 1 1.88 1.29c.12.11.21.21.27.27a5.926 5.926 0 0 0 -1.51 3.97v.98a5.8781 5.8781 0 0 0 1.53 3.99l-.01.01a7.686 7.686 0 0 1 -3.08 1.84z" fill="#ff5666"></path><g fill="#e2394d"><path d="m38 39v4a5.97924 5.97924 0 0 0 -1.76-4.24c-.01-.01-.02-.01-.03-.03a5.46773 5.46773 0 0 0 1.79.27z"></path><path d="m33.78 37.27a6.00241 6.00241 0 0 0 -3.56 0 5.99056 5.99056 0 0 0 1.78-4.27 5.99056 5.99056 0 0 0 1.78 4.27z"></path><path d="m27.79 38.73a5.9758 5.9758 0 0 0 -1.79 4.27v-4a5.92462 5.92462 0 0 0 1.79-.27z"></path></g><path d="m19.1 49.92a5.98148 5.98148 0 0 1 -5.1-5.92v-1a5.96937 5.96937 0 0 1 1.56-4.02 3.16782 3.16782 0 0 0 .44.02 6.48845 6.48845 0 0 0 2.28-.44 6.474 6.474 0 0 0 2.72-2.24 5.96246 5.96246 0 0 0 4.65 2.66 1.99782 1.99782 0 0 0 .35.02v5a5.86678 5.86678 0 0 1 -.81 3.01 5.99859 5.99859 0 0 1 -3.23 2.67 6.21147 6.21147 0 0 1 -1.96.32c-.27 0-.55-.03-.55-.03s-.18-.02-.35-.05z" fill="#ff5666"></path><path d="m21 29a5.99308 5.99308 0 0 0 5.5-3.6 5.99534 5.99534 0 0 0 4.66 3.56 5.80676 5.80676 0 0 1 .84 3.04v1a5.99056 5.99056 0 0 1 -1.78 4.27h-.01v.01a6.0333 6.0333 0 0 1 -2.42 1.45 5.92462 5.92462 0 0 1 -1.79.27 1.99782 1.99782 0 0 1 -.35-.02 5.96246 5.96246 0 0 1 -4.65-2.66 6.08681 6.08681 0 0 1 -.62-1.22 5.59417 5.59417 0 0 1 -.29-1.05 6.026 6.026 0 0 1 -.09-1.05v-1a5.884 5.884 0 0 1 .81-3v-.01a1.2102 1.2102 0 0 0 .19.01z" fill="#f3445a"></path><path d="m30.9 49.91c.03.36.07.73.1 1.09v1a6.00393 6.00393 0 0 1 -4.93 5.91 5.33021 5.33021 0 0 1 -1.07.09 5.99835 5.99835 0 0 1 -6-6v-1a5.63882 5.63882 0 0 1 .1-1.08c.17.03.35.05.35.05s.28.03.55.03a6.21147 6.21147 0 0 0 1.96-.32 5.99859 5.99859 0 0 0 3.23-2.67 5.86678 5.86678 0 0 0 .81-3.01 5.5563 5.5563 0 0 0 .1 1.1 6.0219 6.0219 0 0 0 4.8 4.81z" fill="#f3445a"></path><path d="m40 8.66c.18 4.16-1.95 8.9-2.72 10.5a6.25239 6.25239 0 0 0 -2.93-2.67 5.81234 5.81234 0 0 0 -1.77-.44v-.01c-.85-.99-1.71-1.98-2.57-2.97.32-.39.64-.79.96-1.18l2.03-2.49.73-.88c.71-1.09 1.42-2.19 2.12-3.28l2.12-4.24a18.44462 18.44462 0 0 1 1.91 6.22s.09.72.12 1.44z" fill="#8fcd5a"></path></svg>