<!-- icon666.com - MILLIONS OF FREE VECTOR ICONS --><svg version="1.1" id="Layer_1" xmlns="http://www.w3.org/2000/svg" xmlns:xlink="http://www.w3.org/1999/xlink" x="0px" y="0px" viewBox="0 0 294.9 294.9" style="enable-background:new 0 0 294.9 294.9;" xml:space="preserve"><g><polygon style="fill:#FFE49C;" points="191.265,287.401 103.635,287.401 95.329,199.771 199.57,199.771 "></polygon><path style="fill:#F59D00;" d="M197.569,75.099c10.538-9.771,14.393-23.553,8.463-33.823c-5.93-10.27-19.792-13.823-33.523-9.582 c-3.193-14.011-13.201-24.241-25.06-24.241s-21.867,10.229-25.06,24.241c-13.731-4.24-27.593-0.688-33.523,9.582 c-5.93,10.27-2.075,24.052,8.463,33.823c-10.538,9.771-14.393,23.553-8.463,33.823s19.792,13.823,33.523,9.582 c3.193,14.011,13.201,24.241,25.06,24.241s21.867-10.23,25.06-24.241c13.731,4.241,27.593,0.688,33.523-9.582 C211.962,98.652,208.107,84.87,197.569,75.099z"></path><circle style="fill:#FFE49C;" cx="147.449" cy="75.099" r="26.13"></circle><g><path style="fill:#414042;" d="M207.731,75.099c20.258-25.94,2.471-56.783-30.141-52.206c-12.337-30.517-47.939-30.53-60.281,0 c-32.596-4.578-50.41,26.252-30.141,52.206c-20.258,25.937-2.481,56.776,30.141,52.205c4.473,11.066,12.846,19.115,22.641,21.881 v43.085H95.33c-4.42,0-7.884,3.809-7.466,8.208l2.791,29.449c0.001,0.012,0.002,0.024,0.003,0.037l5.511,58.144 c0.365,3.851,3.598,6.792,7.466,6.792h87.63c3.868,0,7.102-2.941,7.466-6.792l5.511-58.144c0.001-0.012,0.002-0.024,0.003-0.037 l2.791-29.449c0.418-4.4-3.048-8.208-7.466-8.208h-44.62v-15.606l32.682-15.311c3.751-1.757,5.367-6.222,3.61-9.973 s-6.223-5.366-9.973-3.61l-26.319,12.331v-10.915c9.794-2.766,18.167-10.815,22.641-21.881 C210.182,131.88,228.003,101.054,207.731,75.099z M110.457,279.901l-4.096-43.219h82.176l-4.096,43.219H110.457z M189.959,221.681 h-85.02l-1.366-14.411h87.751L189.959,221.681z M199.537,105.172c-3.99,6.911-14.195,9.446-24.814,6.166 c-4.173-1.289-8.557,1.25-9.526,5.5c-2.47,10.838-9.768,18.407-17.748,18.407s-15.277-7.569-17.748-18.407 c-0.969-4.251-5.354-6.788-9.526-5.5c-10.619,3.281-20.824,0.745-24.814-6.166s-1.084-17.016,7.067-24.573 c3.197-2.965,3.202-8.032,0-10.999c-8.151-7.558-11.057-17.663-7.067-24.573c3.99-6.911,14.194-9.446,24.815-6.167 c4.171,1.289,8.556-1.249,9.525-5.5c2.47-10.838,9.768-18.407,17.748-18.407c7.979,0,15.277,7.569,17.748,18.407 c0.971,4.258,5.362,6.786,9.525,5.5c10.625-3.278,20.826-0.744,24.815,6.167c3.99,6.911,1.083,17.015-7.067,24.573 c-3.197,2.964-3.202,8.031,0,10.999C200.621,88.156,203.528,98.261,199.537,105.172z"></path><path style="fill:#414042;" d="M147.45,41.469c-18.544,0-33.63,15.086-33.63,33.63s15.086,33.63,33.63,33.63 s33.63-15.086,33.63-33.63S165.993,41.469,147.45,41.469z M147.45,93.73c-10.273,0-18.63-8.357-18.63-18.63 s8.358-18.63,18.63-18.63c10.273,0,18.63,8.357,18.63,18.63C166.08,85.372,157.722,93.73,147.45,93.73z"></path></g></g></svg>