<!-- icon666.com - MILLIONS OF FREE VECTOR ICONS --><svg id="Filled_Outline" viewBox="0 0 512 512" xmlns="http://www.w3.org/2000/svg"><g><path d="m256.01 368.001c-.437 0-.88-.035-1.325-.109-4.358-.727-7.302-4.849-6.576-9.207.172-1.034 4.424-25.706 21.876-57.531 16.03-29.23 46.776-70.342 102.222-100.197 3.889-2.094 8.741-.64 10.837 3.251 2.095 3.891.639 8.742-3.251 10.837-99.397 53.521-115.748 145.35-115.902 146.271-.652 3.913-4.041 6.685-7.881 6.685z" fill="#59554f"></path></g><g><path d="m256 360c-4.418 0-8-3.582-8-8v-104c0-4.418 3.582-8 8-8s8 3.582 8 8v104c0 4.418-3.582 8-8 8z" fill="#59554f"></path></g><path d="m462.4 166.4h-8.596l6.078-6.079c9.997-9.997 9.997-26.206 0-36.204-9.997-9.997-26.206-9.997-36.204 0l-6.078 6.078v-8.595c0-14.138-11.461-25.6-25.6-25.6-14.138 0-25.6 11.462-25.6 25.6v8.596l-6.078-6.078c-9.997-9.997-26.206-9.997-36.204 0-9.997 9.997-9.997 26.206 0 36.204l6.078 6.079h-8.596c-14.138 0-25.6 11.462-25.6 25.6 0 14.138 11.461 25.6 25.6 25.6h8.596l-6.078 6.078c-9.997 9.997-9.997 26.206 0 36.204 9.997 9.997 26.206 9.997 36.204 0l6.078-6.078v8.596c0 14.138 11.461 25.6 25.6 25.6 14.138 0 25.6-11.462 25.6-25.6v-8.596l6.078 6.078c9.997 9.997 26.206 9.997 36.204 0 9.997-9.997 9.997-26.206 0-36.204l-6.078-6.079h8.596c14.138 0 25.6-11.462 25.6-25.6 0-14.138-11.461-25.6-25.6-25.6z" fill="#8799b2"></path><circle cx="392" cy="192" fill="#f4e192" r="44.8"></circle><g><path d="m255.99 368.001c-3.837 0-7.223-2.769-7.88-6.676-.062-.363-4.175-23.603-20.454-53.077-14.994-27.146-43.725-65.353-95.449-93.204-3.89-2.095-5.346-6.946-3.251-10.837s6.946-5.345 10.837-3.251c55.445 29.855 86.192 70.967 102.222 100.197 17.453 31.825 21.704 56.497 21.876 57.531.727 4.358-2.218 8.48-6.576 9.207-.445.074-.888.11-1.325.11z" fill="#59554f"></path></g><path d="m49.6 166.4h8.596l-6.078-6.079c-9.997-9.997-9.997-26.206 0-36.204 9.997-9.997 26.206-9.997 36.204 0l6.078 6.078v-8.595c0-14.138 11.461-25.6 25.6-25.6 14.138 0 25.6 11.462 25.6 25.6v8.596l6.078-6.078c9.997-9.997 26.206-9.997 36.204 0 9.997 9.997 9.997 26.206 0 36.204l-6.078 6.079h8.596c14.138 0 25.6 11.462 25.6 25.6 0 14.138-11.461 25.6-25.6 25.6h-8.596l6.078 6.078c9.997 9.997 9.997 26.206 0 36.204-9.997 9.997-26.206 9.997-36.204 0l-6.078-6.078v8.596c0 14.138-11.461 25.6-25.6 25.6-14.138 0-25.6-11.462-25.6-25.6v-8.596l-6.078 6.078c-9.997 9.997-26.206 9.997-36.204 0-9.997-9.997-9.997-26.206 0-36.204l6.078-6.079h-8.596c-14.138 0-25.6-11.462-25.6-25.6 0-14.138 11.461-25.6 25.6-25.6z" fill="#8799b2"></path><circle cx="120" cy="192" fill="#f4e192" r="44.8"></circle><path d="m320 472h-128l-16-96h160z" fill="#f4e192"></path><path d="m160 344h192v32h-192z" fill="#cdbd7b"></path><path d="m336 488h-160l-8-32h176z" fill="#cdbd7b"></path><path d="m344 112h-10.745l7.598-7.598c12.497-12.497 12.497-32.758 0-45.255-12.497-12.497-32.758-12.497-45.255 0l-7.598 7.598v-10.745c0-17.673-14.327-32-32-32-17.673 0-32 14.327-32 32v10.745l-7.598-7.598c-12.497-12.497-32.758-12.497-45.255 0-12.497 12.497-12.497 32.758 0 45.255l7.598 7.598h-10.745c-17.673 0-32 14.327-32 32 0 17.673 14.327 32 32 32h10.745l-7.598 7.598c-12.497 12.497-12.497 32.758 0 45.255 12.497 12.497 32.758 12.497 45.255 0l7.598-7.598v10.745c0 17.673 14.327 32 32 32 17.673 0 32-14.327 32-32v-10.745l7.598 7.598c12.497 12.497 32.758 12.497 45.255 0 12.497-12.497 12.497-32.758 0-45.255l-7.598-7.598h10.745c17.673 0 32-14.327 32-32 0-17.673-14.327-32-32-32z" fill="#acc3e4"></path><circle cx="256" cy="144" fill="#f4e192" r="56"></circle><g><path d="m496 192c0-15.68-10.795-28.885-25.344-32.573 3.081-5.148 4.725-11.052 4.725-17.207 0-8.975-3.495-17.412-9.841-23.758-6.346-6.347-14.784-9.842-23.759-9.842-6.155 0-12.058 1.644-17.206 4.724-3.69-14.549-16.895-25.344-32.575-25.344-13.601 0-25.435 8.162-30.695 19.947-3.203-1.544-6.639-2.678-10.243-3.323 10.856-15.588 9.339-37.241-4.553-51.134-7.555-7.555-17.6-11.716-28.284-11.716-8.29 0-16.195 2.506-22.851 7.157-3.346-18.697-19.729-32.931-39.374-32.931s-36.028 14.234-39.375 32.932c-6.656-4.651-14.561-7.157-22.851-7.157-10.684 0-20.729 4.161-28.284 11.716-13.892 13.893-15.409 35.546-4.553 51.134-3.604.645-7.04 1.779-10.243 3.323-5.259-11.786-17.093-19.948-30.694-19.948-15.68 0-28.885 10.795-32.574 25.344-5.148-3.08-11.051-4.724-17.206-4.724-8.975 0-17.413 3.495-23.759 9.841-6.346 6.347-9.841 14.784-9.841 23.759 0 6.155 1.644 12.059 4.725 17.207-14.55 3.688-25.345 16.893-25.345 32.573 0 15.683 10.8 28.891 25.354 32.576-7.685 12.896-5.983 29.873 5.107 40.962 6.346 6.347 14.784 9.842 23.759 9.842 6.155 0 12.058-1.644 17.206-4.724 3.689 14.549 16.894 25.344 32.574 25.344s28.885-10.795 32.574-25.344c5.148 3.08 11.051 4.724 17.206 4.724 8.975 0 17.413-3.495 23.759-9.841.631-.631 1.226-1.29 1.801-1.964 24.574 26.567 38.116 53.826 45.222 72.425h-80.562c-4.418 0-8 3.582-8 8v32c0 4.418 3.582 8 8 8h9.062l9.144 64h-10.206c-2.463 0-4.79 1.135-6.306 3.077-1.516 1.941-2.053 4.474-1.456 6.863l8 32c.891 3.562 4.09 6.06 7.761 6.06h160c3.671 0 6.871-2.498 7.761-6.06l8-32c.597-2.39.061-4.922-1.456-6.863-1.514-1.942-3.841-3.077-6.304-3.077h-10.206l9.144-64h9.062c4.418 0 8-3.582 8-8v-32c0-4.418-3.582-8-8-8h-80.555c7.1-18.592 20.638-45.844 45.222-72.421.573.671 1.164 1.33 1.794 1.959 6.346 6.347 14.784 9.842 23.759 9.842 6.155 0 12.058-1.644 17.206-4.724 3.689 14.549 16.894 25.344 32.574 25.344s28.885-10.795 32.574-25.344c5.148 3.08 11.051 4.724 17.206 4.724 8.975 0 17.413-3.495 23.759-9.841 6.346-6.347 9.841-14.784 9.841-23.759 0-6.155-1.644-12.059-4.725-17.207 14.55-3.688 25.345-16.893 25.345-32.573zm-114.033-35.417c3.245-.917 6.607-1.383 10.033-1.383 20.292 0 36.8 16.509 36.8 36.8s-16.508 36.8-36.8 36.8c-14.657 0-28.039-8.906-33.801-22.29.057-8.101-2.318-16.215-7.137-23.134 14.516-2.597 26.339-13.054 30.905-26.793zm-221.029 26.793c-4.947 7.104-7.316 15.466-7.124 23.781-.357.437-.687.904-.953 1.428-6.307 12.469-18.899 20.215-32.861 20.215-20.292 0-36.8-16.509-36.8-36.8s16.508-36.8 36.8-36.8c3.426 0 6.788.466 10.033 1.383 4.566 13.739 16.389 24.196 30.905 26.793zm21.287 70.85c-3.324 3.324-7.744 5.154-12.445 5.154s-9.121-1.83-12.445-5.155l-6.078-6.078c-2.287-2.287-5.727-2.973-8.718-1.733-2.989 1.238-4.938 4.155-4.938 7.391v8.597c0 9.704-7.896 17.6-17.6 17.6s-17.6-7.896-17.6-17.6v-8.597c0-3.235-1.949-6.152-4.938-7.391-2.99-1.238-6.431-.554-8.718 1.733l-6.078 6.079c-3.325 3.324-7.744 5.154-12.445 5.154s-9.121-1.83-12.445-5.155c-6.862-6.861-6.862-18.027 0-24.89l6.079-6.079c2.288-2.288 2.972-5.729 1.734-8.718s-4.155-4.938-7.391-4.938h-8.599c-9.705 0-17.6-7.896-17.6-17.6s7.896-17.6 17.6-17.6h8.596c3.236 0 6.153-1.949 7.391-4.938s.554-6.43-1.734-8.718l-6.079-6.08c-3.324-3.324-5.155-7.743-5.155-12.444s1.831-9.12 5.155-12.445c3.324-3.324 7.744-5.154 12.445-5.154s9.121 1.83 12.445 5.155l6.078 6.078c2.288 2.287 5.728 2.974 8.718 1.733 2.989-1.238 4.938-4.155 4.938-7.391v-8.596c0-9.704 7.896-17.6 17.6-17.6 8.565 0 15.784 6.176 17.296 14.398-4.964 5.943-8.234 13.343-9.074 21.455-2.705-.424-5.448-.653-8.222-.653-29.114 0-52.8 23.686-52.8 52.8s23.686 52.8 52.8 52.8c15.442 0 29.708-6.609 39.58-17.83 1.629 2.685 3.594 5.222 5.911 7.54 5.915 5.916 13.361 9.739 21.441 11.124-.722 3.22-2.323 6.21-4.705 8.592zm20.53-6.088c.192-1 .342-2.009.443-3.028 4.811-1.157 9.354-3.196 13.428-6.042 2.88 16.089 15.416 28.865 31.375 32.118v41.695c-9.165-19.103-23.434-42.343-45.246-64.743zm126.999 231.862h-147.508l-4-16h155.508zm-144.53-96h141.552l-9.144 64h-123.264zm158.776-32v16h-176v-16zm-80-39.117v-41.697c15.958-3.253 28.495-16.029 31.375-32.118 4.07 2.844 8.609 4.882 13.416 6.039.102 1.023.251 2.037.445 3.042-21.816 22.405-36.079 45.638-45.236 64.734zm54.226-82.657c-6.411 0-12.438-2.497-16.971-7.03l-7.598-7.598c-2.287-2.287-5.728-2.972-8.718-1.733-2.989 1.238-4.938 4.155-4.938 7.391v10.744c0 13.233-10.766 24-24 24s-24-10.767-24-24v-10.745c0-3.235-1.949-6.152-4.938-7.391-.99-.41-2.029-.609-3.06-.609-2.082 0-4.128.812-5.659 2.343l-7.598 7.598c-4.533 4.533-10.56 7.03-16.971 7.03s-12.438-2.497-16.971-7.03c-9.357-9.357-9.357-24.583 0-33.94l7.598-7.598c2.288-2.288 2.973-5.729 1.734-8.719s-4.155-4.939-7.391-4.939h-10.745c-13.234 0-24-10.767-24-24s10.766-24 24-24h10.745c3.236 0 6.153-1.949 7.391-4.938s.554-6.431-1.734-8.719l-7.598-7.598c-9.357-9.357-9.357-24.584 0-33.941 9.358-9.357 24.584-9.355 33.941.001l7.598 7.598c2.288 2.288 5.729 2.974 8.718 1.733 2.989-1.238 4.938-4.155 4.938-7.391v-10.745c0-13.233 10.766-24 24-24s24 10.767 24 24v10.745c0 3.235 1.949 6.152 4.938 7.391 2.988 1.239 6.43.554 8.718-1.733l7.598-7.598c4.533-4.533 10.56-7.03 16.971-7.03s12.438 2.497 16.971 7.03c9.357 9.357 9.357 24.583 0 33.94l-7.598 7.598c-2.288 2.288-2.973 5.729-1.734 8.719s4.155 4.938 7.391 4.938h10.746c13.234 0 24 10.767 24 24s-10.766 24-24 24h-10.745c-3.236 0-6.153 1.949-7.391 4.938s-.554 6.431 1.734 8.719l7.598 7.598c9.357 9.357 9.357 24.583-.001 33.94-4.532 4.534-10.559 7.031-16.969 7.031zm144.174-20.626h-8.596c-3.236 0-6.153 1.949-7.391 4.938s-.554 6.43 1.734 8.718l6.079 6.08c3.324 3.324 5.155 7.743 5.155 12.444s-1.831 9.12-5.155 12.445c-3.324 3.324-7.744 5.154-12.445 5.154s-9.121-1.83-12.445-5.155l-6.078-6.078c-2.287-2.287-5.728-2.973-8.718-1.733-2.989 1.238-4.938 4.155-4.938 7.391v8.597c0 9.704-7.896 17.6-17.6 17.6s-17.6-7.896-17.6-17.6v-8.597c0-3.235-1.949-6.152-4.938-7.391s-6.431-.554-8.718 1.733l-6.078 6.079c-3.325 3.324-7.744 5.154-12.445 5.154s-9.121-1.83-12.445-5.155c-2.381-2.381-3.971-5.373-4.688-8.594 8.073-1.388 15.512-5.21 21.423-11.121 2.333-2.333 4.309-4.89 5.944-7.596 9.864 11.105 24.223 17.887 39.543 17.887 29.114 0 52.8-23.686 52.8-52.8s-23.686-52.8-52.8-52.8c-2.774 0-5.517.227-8.222.653-.84-8.112-4.11-15.512-9.074-21.455 1.512-8.222 8.731-14.398 17.296-14.398 9.705 0 17.6 7.896 17.6 17.6v8.597c0 3.235 1.949 6.152 4.938 7.391 2.99 1.239 6.43.555 8.718-1.733l6.078-6.079c3.325-3.324 7.744-5.154 12.445-5.154s9.121 1.83 12.445 5.155c3.324 3.324 5.155 7.743 5.155 12.444s-1.831 9.12-5.155 12.445l-6.079 6.079c-2.288 2.288-2.972 5.729-1.734 8.718s4.155 4.938 7.391 4.938h8.596c9.705 0 17.6 7.896 17.6 17.6s-7.894 17.599-17.598 17.599z"></path><path d="m256 208c35.29 0 64-28.71 64-64s-28.71-64-64-64-64 28.71-64 64 28.71 64 64 64zm0-112c26.467 0 48 21.532 48 48s-21.533 48-48 48-48-21.532-48-48 21.533-48 48-48z"></path></g></svg>