<!-- icon666.com - MILLIONS OF FREE VECTOR ICONS --><svg id="Layer_1" viewBox="0 0 48 48" xmlns="http://www.w3.org/2000/svg" xmlns:xlink="http://www.w3.org/1999/xlink" data-name="Layer 1"><linearGradient id="linear-gradient" gradientUnits="userSpaceOnUse" x1="43.426" x2="8.711" y1="5.788" y2="39.217"><stop offset="0" stop-color="#4aff9e"></stop><stop offset="1" stop-color="#43dc8f"></stop></linearGradient><linearGradient id="linear-gradient-2" gradientUnits="userSpaceOnUse" x1="36.656" x2="3.656" y1="10.74" y2="41.383"><stop offset="0" stop-color="#37aa79"></stop><stop offset="1" stop-color="#398a70"></stop></linearGradient><path d="m43.735 4.833a1 1 0 0 0 -1.609-.615c-3.278 2.613-7.578 3.575-12.126 4.593-6.519 1.457-13.9 3.109-19.644 10.089a17.756 17.756 0 0 0 -4.04 12.21 18.557 18.557 0 0 0 1.178 5.9 1 1 0 0 0 .581.553 33.954 33.954 0 0 0 10.2 1.692h.361a25.363 25.363 0 0 0 8.825-1.48 19.944 19.944 0 0 0 8.735-6.289 35.775 35.775 0 0 0 7.511-17.948 32.523 32.523 0 0 0 .028-8.705z" fill="url(#linear-gradient)"></path><path d="m35.481 13.746a1 1 0 0 0 -1.407-.134q-2.211 1.827-4.912 3.7a7.97 7.97 0 0 1 .565-1.512 1 1 0 0 0 -1.752-.964 11.036 11.036 0 0 0 -1.119 4.023q-1.763 1.146-3.689 2.3c-1.353.807-2.618 1.654-3.8 2.522a34.536 34.536 0 0 1 1.2-5.328 1 1 0 0 0 -1.9-.614 32.057 32.057 0 0 0 -1.432 7.61 48.736 48.736 0 0 0 -4.05 3.749 12.585 12.585 0 0 1 .692-3.614 1 1 0 0 0 -1.862-.73 14.06 14.06 0 0 0 -.727 6.426 47.865 47.865 0 0 0 -3.023 3.9 37.4 37.4 0 0 0 -4.194 7.581 1 1 0 1 0 1.877.69 40.415 40.415 0 0 1 6.782-10.774 35.692 35.692 0 0 0 6.417.734 14.3 14.3 0 0 0 1.445-.067 1 1 0 1 0 -.2-1.989 25.466 25.466 0 0 1 -6.1-.424 46.415 46.415 0 0 1 4.152-3.894 26.623 26.623 0 0 0 7.389 1.008 27.646 27.646 0 0 0 2.819-.143 1 1 0 1 0 -.2-1.989 26.113 26.113 0 0 1 -8.007-.438c1.168-.863 2.418-1.7 3.755-2.5s2.625-1.6 3.851-2.4a26.806 26.806 0 0 0 3.762.307 11.405 11.405 0 0 0 2.063-.163 1 1 0 0 0 -.37-1.966 12.341 12.341 0 0 1 -2.888.089c1.723-1.2 3.308-2.4 4.739-3.584a1 1 0 0 0 .124-1.412z" fill="url(#linear-gradient-2)"></path></svg>