<!-- icon666.com - MILLIONS OF FREE VECTOR ICONS --><svg viewBox="-72 0 512 512" xmlns="http://www.w3.org/2000/svg"><path d="m135.320312 300.933594h-127.714843c0-13.949219.890625-27.445313 2.554687-40.199219 7.746094-59.542969 32.257813-103.039063 61.308594-103.039063 29.035156 0 53.550781 43.496094 61.296875 103.039063 1.660156 12.753906 2.554687 26.25 2.554687 40.199219zm0 0" fill="#c28e63"></path><path d="m71.46875 157.695312c-13.445312 0-24.800781 43.496094-28.378906 103.039063-.769532 12.753906-1.1875 26.25-1.1875 40.199219h-34.296875c0-13.949219.890625-27.445313 2.554687-40.199219 7.746094-59.542969 32.257813-103.039063 61.308594-103.039063zm0 0" fill="#996136"></path><path d="m280.078125 182.027344h-192.410156c0-17 1.339843-33.425782 3.851562-48.957032 11.660157-72.503906 48.597657-125.464843 92.355469-125.464843s80.691406 52.960937 92.351562 125.464843c2.515626 15.53125 3.851563 31.957032 3.851563 48.957032zm0 0" fill="#c28e63"></path><path d="m280.078125 182.027344h-192.410156c0-17 1.339843-33.425782 3.851562-48.957032h184.707031c2.515626 15.53125 3.851563 31.957032 3.851563 48.957032zm0 0" fill="#d8e4ef"></path><path d="m183.246094 7.613281c-21.992188.996094-40.484375 53.644531-46.363282 125.457031-1.277343 15.53125-1.957031 31.957032-1.957031 48.957032h-47.257812c0-17 1.339843-33.425782 3.84375-48.957032 11.617187-72.15625 48.25-124.960937 91.734375-125.457031zm0 0" fill="#996136"></path><path d="m136.882812 133.070312c-1.277343 15.53125-1.957031 31.957032-1.957031 48.957032h-47.257812c0-17 1.339843-33.425782 3.84375-48.957032zm0 0" fill="#91b8d8"></path><path d="m360.78125 250.757812h-155.515625c0-9.945312.375-19.710937 1.09375-29.199218 6.1875-82.4375 38.164063-145.226563 76.667969-145.226563 38.507812 0 70.476562 62.789063 76.660156 145.226563.71875 9.488281 1.09375 19.253906 1.09375 29.199218zm0 0" fill="#c28e63"></path><path d="m283.019531 76.332031c-17.632812 0-32.261719 62.789063-35.089843 145.226563-.324219 9.488281-.496094 19.253906-.496094 29.199218h-42.167969c0-9.945312.375-19.710937 1.09375-29.199218 6.1875-82.4375 38.152344-145.226563 76.660156-145.226563zm0 0" fill="#996136"></path><path d="m135.320312 300.933594h-127.714843c0-13.949219.890625-27.445313 2.554687-40.199219h122.605469c1.660156 12.753906 2.554687 26.25 2.554687 40.199219zm0 0" fill="#d8e4ef"></path><path d="m300.476562 367.007812h-77.75c0-8.507812.535157-16.71875 1.550782-24.484374 4.714844-36.246094 19.636718-62.730469 37.320312-62.730469 17.679688 0 32.605469 26.484375 37.328125 62.730469 1.015625 7.765624 1.550781 15.976562 1.550781 24.484374zm0 0" fill="#c28e63"></path><path d="m262.621094 279.792969c-6.914063 0-12.753906 26.484375-14.601563 62.730469-.394531 7.765624-.609375 15.976562-.609375 24.484374h-23.660156c0-8.507812.535156-16.71875 1.550781-24.484374 4.714844-36.246094 19.636719-62.730469 37.320313-62.730469zm0 0" fill="#996136"></path><path d="m43.089844 260.734375c-.769532 12.753906-1.1875 26.25-1.1875 40.199219h-34.296875c0-13.949219.890625-27.445313 2.554687-40.199219zm0 0" fill="#91b8d8"></path><path d="m360.78125 250.757812h-155.515625c0-9.945312.375-19.710937 1.09375-29.199218h153.328125c.71875 9.488281 1.09375 19.253906 1.09375 29.199218zm0 0" fill="#d8e4ef"></path><path d="m247.929688 221.558594c-.324219 9.488281-.496094 19.253906-.496094 29.199218h-42.167969c0-9.945312.375-19.710937 1.09375-29.199218zm0 0" fill="#91b8d8"></path><path d="m300.476562 367.007812h-77.75c0-8.507812.535157-16.71875 1.550782-24.484374h74.648437c1.015625 7.765624 1.550781 15.976562 1.550781 24.484374zm0 0" fill="#d8e4ef"></path><path d="m248.019531 342.523438c-.394531 7.765624-.609375 15.976562-.609375 24.484374h-24.683594c0-8.507812.535157-16.71875 1.550782-24.484374zm0 0" fill="#91b8d8"></path><path d="m283.027344 68.730469c-5.574219 0-11.007813 1.097656-16.257813 3.175781-19.429687-45.1875-50.019531-71.90625-82.894531-71.90625-26.777344 0-52.078125 17.425781-71.25 49.070312-2.175781 3.589844-1.027344 8.265626 2.5625 10.441407 3.59375 2.175781 8.269531 1.027343 10.445312-2.5625 16.308594-26.917969 36.992188-41.742188 58.242188-41.742188 26.949219 0 52.703125 23.929688 69.613281 64.320313-12.703125 9.699218-23.921875 25.546875-32.90625 45.9375h-119.980469c2.960938-15.230469 7.117188-29.671875 12.363282-42.808594 1.554687-3.898438-.34375-8.324219-4.242188-9.882812-3.898437-1.554688-8.324218.34375-9.882812 4.242187-8.847656 22.15625-14.777344 47.71875-17.328125 74.484375-3.308594-.925781-6.664063-1.410156-10.042969-1.410156-20.242188 0-38.746094 16.5-52.105469 46.460937-12.484375 28.007813-19.363281 65.078125-19.363281 104.382813 0 4.199218 3.40625 7.605468 7.605469 7.605468h56.628906c3.789063 25.847657 25.847656 54.265626 49.089844 84.195313 26.683593 34.363281 54.199219 69.816406 57.875 104.058594h-118.183594c-4.199219 0-7.605469 3.402343-7.605469 7.601562s3.40625 7.605469 7.605469 7.605469h255.480469c4.199218 0 7.601562-3.40625 7.601562-7.605469s-3.402344-7.601562-7.601562-7.601562h-120.347656c5.046874-16.636719 23.898437-41.378907 40.828124-63.585938 17.535157-23.007812 33.03125-43.34375 37.296876-58.597656h34.207031c4.199219 0 7.601562-3.40625 7.601562-7.605469 0-24.335937-4.277343-47.335937-12.046875-64.761718-3.652344-8.199219-7.953125-14.832032-12.722656-19.765626 3.472656-8.597656 5.613281-16.574218 6.484375-24.117187h70.988281c4.199219 0 7.605469-3.40625 7.605469-7.605469 0-102.070312-37.496094-182.023437-85.363281-182.023437zm-68.429688 71.941406c-3.65625 10.410156-6.796875 21.710937-9.34375 33.753906h-109.886718c.089843-3.753906.253906-7.519531.480468-11.261719.460938-7.597656 1.214844-15.109374 2.234375-22.492187zm-181.34375 62.074219c10.609375-23.796875 24.539063-37.445313 38.214844-37.445313 2.96875 0 5.960938.644531 8.933594 1.898438-.222656 4.953125-.335938 9.921875-.335938 14.828125 0 4.199218 3.402344 7.605468 7.601563 7.605468h15.210937c9.757813 16.148438 17.027344 38.304688 21.101563 63.492188h-105.039063c3.035156-18.753906 7.863282-35.917969 14.3125-50.378906zm-16.355468 65.585937h109.109374c.863282 8.128907 1.414063 16.488281 1.617188 24.996094h-112.328125c.203125-8.503906.742187-16.863281 1.601563-24.996094zm62.753906 40.207031h55.667968c4.199219 0 7.601563-3.40625 7.601563-7.605468 0-42.78125-8.34375-83.15625-22.675781-111.300782h56.019531c-.078125 60.484376-1.082031 97.425782-2.144531 136.429688-.949219 34.765625-1.921875 70.449219-2.3125 125.078125-12.175782-23.546875-29.949219-46.453125-46.472656-67.734375-21.300782-27.429688-41.535157-53.503906-45.683594-74.867188zm137.226562 115.445313c-8.53125 11.199219-17.175781 22.542969-24.589844 33.460937 7.453126-31.917968 21.53125-59.203124 35.746094-82.835937h22.234375c-5.222656 12.421875-20.023437 31.839844-33.390625 49.375zm65.265625-115.550781c3.429688 7.6875 6.089844 16.671875 7.90625 26.488281h-56.90625c1.820313-9.816406 4.480469-18.800781 7.90625-26.488281 5.875-13.171875 13.554688-21.035156 20.546875-21.035156 6.996094 0 14.675782 7.863281 20.546875 21.035156zm-51.671875 50.96875c.125-3.136719.335938-6.226563.609375-9.273438h61.035157c.273437 3.046875.484374 6.136719.605468 9.273438zm39.914063-85.664063c-2.847657-1.023437-5.785157-1.546875-8.785157-1.546875-13.570312 0-25.800781 10.671875-34.4375 30.050782-7.722656 17.320312-11.992187 40.152343-12.042968 64.332031-9.667969 16.082031-19.785156 34.75-27.828125 55.894531.476562-39.03125 1.261719-67.816406 2.027343-95.992188 1.066407-39.113281 2.074219-76.15625 2.152344-136.84375h10.953125c-3.085937 19.027344-4.757812 39.582032-4.757812 61.121094 0 4.199219 3.402343 7.605469 7.601562 7.605469h69.191407c-.703126 4.804687-2.054688 9.910156-4.074219 15.378906zm-57.441407-30.585937c.09375-4.703125.28125-9.367188.539063-13.988282h68c4.199219 0 7.605469-3.40625 7.605469-7.605468 0-4.199219-3.40625-7.601563-7.605469-7.601563h-66.839844c3.054688-31.441406 10.007813-60.257812 20.34375-83.441406 13.199219-29.601563 30.707031-46.578125 48.039063-46.578125 17.332031 0 34.839844 16.976562 48.039062 46.578125 10.332032 23.183594 17.289063 52 20.34375 83.441406h-39.507812c-4.199219 0-7.601563 3.402344-7.601563 7.601563 0 4.199218 3.402344 7.605468 7.601563 7.605468h40.667968c.253907 4.621094.445313 9.285157.535157 13.988282zm0 0"></path></svg>