<!-- icon666.com - MILLIONS OF FREE VECTOR ICONS --><svg id="Слой_1" enable-background="new 0 0 512 512" viewBox="0 0 512 512" xmlns="http://www.w3.org/2000/svg"><g><g><path d="m247.1 168.9c-.4-2.7-2.3-5-4.8-5.9-4-1.5-7.6-3.2-11-5.2-10.6-6.4-16.8-15-23.9-25l-.3-.4c-5.8-8.1-14.6-12.8-24.8-13.1-.5 0-.9 0-1.4 0-3.5 0-7.1.4-10.5.8h-.3c-3.5.4-7.2.8-10.9.8-.7 0-1.5 0-2.2 0-7.4-.4-15.3-2-23.5-4.9-.8-.3-1.7-.4-2.5-.4-1.9 0-3.7.7-5.1 2-2.1 1.9-2.9 4.8-2.2 7.5 6.2 23.6-1 54.9-4.4 69.9-9.4 40.9-13.3 73-12.6 104.2.7 37 8.2 73.2 22.8 110.7 1.1 2.8 3.8 4.7 6.8 4.8l35.2 1h.2c2.2 0 4.2-.9 5.7-2.6s2.1-3.9 1.8-6.1c-2.5-16.3-7.6-59.2-.6-106 8.3-55 30.4-96.9 65.7-124.8 2.1-1.9 3.2-4.6 2.8-7.3z" fill="#ffa300"></path><path d="m362.9 95.7c-5.3-6.9-13-13-25.2-19.8-15.3-8.6-33.2-12.9-53.1-12.9-5.4 0-11.1.3-16.8 1h-.1c-.5.1-1.1.2-2.4.4h-.2c-6.9 1.1-12.5 2-16.2 2-1.9 0-2.7-.2-3-.3 0 0-.1-.1-.1-.2-.6-1.3-5.8-13.1-17.1-24.5-14.7-14.9-33.4-22.8-54-22.8-13.3 0-27.5 3.2-42.4 9.6-1.5-2.3-15.6-20.6-34.7-21.2-.3 0-.6 0-.9 0-11.1 0-21.7 6-31.5 18-10.1 12.3-13.6 24.3-10.4 35.8 2.6 9.4 9.7 18.3 21.1 26.5 11 7.9 22.3 12.4 26.7 13.9l11.5 6.3c15.1 8.6 29.6 13.3 43.1 13.9.7 0 1.5.1 2.3.1 3.6 0 7.2-.4 10.7-.8h.1c3.5-.4 7.2-.8 10.8-.8h1.3c10 .3 18.6 4.8 24.3 12.8l.3.4c7.2 10 13.4 18.7 24.1 25.1 8.4 5 18.3 8.3 32.1 10.7 3.2.5 6.6.8 10 .8 14.3 0 29.6-5 45.3-14.8.8-.5 1.4-.9 1.6-1 2.5-.8 5.3-1.2 8.8-1.2 1.7 0 3.5.1 5.2.2s3.5.2 5.2.2c2.3 0 4.2-.1 6-.5 13.5-2.4 23.5-12.8 25.4-26.4 1.5-11.7-1-21.7-7.8-30.5z" fill="#ffa300"></path><path d="m99.6 107.5 11 6.1c.1.1.2.1.3.1 13.4 17.8 7.9 52.6 1.7 79.6-16.9 74-21.3 140.3 12.3 223.5 1.1 2.7 3.6 4.5 6.5 4.5l48.8 1.3h.2c2.1 0 4.2-.9 5.6-2.6s2-4 1.5-6.1c-.1-.5-10.8-53.5-2-112.1 8.8-58.3 32.9-100.8 71.9-126.9 1.5.3 3.1.6 4.7.9 3.7.6 7.4.9 11.2.9 15.6 0 32-5.3 48.9-15.9.3-.2.5-.3.7-.4 3.2-.9 6.7-.7 10.9-.5 4.1.2 8.3.4 12.8-.4 16.3-2.9 28.8-15.9 31.1-32.3 4.2-30.5-17.1-46.7-36.3-57.4-20.8-11.7-45.7-16-74.1-12.8-.4.1-1.5.2-3 .5-7.1 1.2-11.2 1.7-13.6 1.8-4.7-9-18.7-31.4-45.3-42.1-21-8.4-44.7-7.6-70.6 2.5-6.4-6.8-19.7-19.1-36.9-19.7-13.8-.5-26.6 6.5-38.1 20.6-11.6 14.2-15.5 28.3-11.7 42 7.5 27.3 43 41.8 51.5 44.9zm71.5 192.2c-7.1 47.3-2.2 90.2.6 108.2l-35.2-1c-30.3-77.6-25.9-140.4-9.8-210.4 3.6-15.8 11-48.1 4.4-73.5 8.8 3.1 17.4 5 25.7 5.4 5 .2 9.7-.3 14.2-.8 3.9-.4 7.6-.8 11.2-.7 7.8.2 14.4 3.6 18.8 9.9l.3.4c7.3 10.2 14.2 19.9 26.2 27.1 3.8 2.3 7.8 4.2 12.2 5.8-36.7 28.8-60 72.6-68.6 129.6zm-100.1-269.9c8.5-10.4 17.4-15.5 26.3-15.3 16.2.5 29 18 29.1 18.2 2 2.8 5.6 3.8 8.8 2.5 74.5-32 102.6 30.9 103.8 33.6 2.9 6.7 10.5 5.7 27.4 3 1.1-.2 1.9-.3 2.3-.4 25.3-2.8 47.3.9 65.4 11 19.4 10.9 31.8 22.3 29 42.8-1.4 10.3-9 18.2-19.3 20-2.9.5-6.1.4-9.5.2-5.1-.3-10.8-.5-16.7 1.4-1 .3-1.7.8-3.2 1.7-17.9 11.2-34.7 15.5-50 12.9-12.8-2.2-21.9-5.2-29.5-9.7-9.4-5.6-14.9-13.3-21.9-23.1l-.3-.4c-7.1-10-17.9-15.6-30.2-16-4.6-.1-8.9.3-13.1.8-4.2.4-8.1.9-12 .7-12.3-.6-25.6-4.9-39.8-13l-11.5-6.4c-.3-.2-.7-.3-1.1-.5-13.7-4.9-38.2-17.9-43-35.3-2.5-8.8.5-18.3 9-28.7z" fill="#1d2228"></path></g><g><path d="m454.6 368.8c-7.6-11.7-24.1-13.8-26.4-14-3.4-22.1-12.7-38.1-27.6-47.8-12.6-8.1-26-9.3-32.9-9.3-3.4 0-5.6.3-6.3.4-1.7-1.9-5.3-7.8-9.8-15-2.2-3.6-3.1-5-3.5-5.7 0-.1-.1-.1-.1-.2-6.8-9.2-13.1-16.3-19.7-22.2-5.1-4.5-18.4-15-33.3-15-4.9 0-9.5 1.2-13.6 3.5-9.9 5.6-13.5 18.3-8 28.4.1.2.2.4.4.6v.1c1.5 2.4 3.3 4.7 5.1 6.8.8.9 1.5 1.9 2.3 2.8 11.9 15.3 16.4 34.9 13.8 60-1.6 15.1-6.3 30-14.2 44.1-12.4 22.4-32.4 43.3-59.4 61.9-13.8 9.5-27.8 17.6-41.7 23.9-2 .9-3.5 2.7-4.1 4.9-.6 2.1-.2 4.5 1.1 6.3l12.1 17.6c1.4 2.1 3.8 3.3 6.2 3.3.5 0 1-.1 1.6-.2 28-5.9 52.3-15.4 74.3-29.1 18.7-11.6 36.4-26.5 57.6-48.3 8.4-8.6 30.6-31.5 50.7-31.5 3 0 5.8.5 8.5 1.5l7.1 4.1c3.3 2.7 20.2 15.7 36.3 15.7 2.5 0 4.9-.3 7.1-1 8.1-2.4 14.1-9 17.8-19.8 3.6-10.7 3.1-19.8-1.4-26.8z" fill="#ffa300"></path><path d="m434.1 348.8c-11-54.8-55.3-58.3-69.4-57.9-2.1-3.2-5.4-8.5-7.2-11.5-2.5-4-3.4-5.5-3.9-6.3-7-9.5-13.8-17.1-20.7-23.3-7-6.2-31.6-25.6-55-12.4-13.2 7.5-18 24.4-10.7 37.8.2.3.4.6.6 1 1.7 2.9 3.7 5.3 5.7 7.7.7.9 1.4 1.8 2.1 2.7 10.7 13.8 14.7 31.8 12.3 55-1.5 14.2-6 28.1-13.3 41.5-11.9 21.5-31.2 41.5-57.3 59.5-15.3 10.5-30.8 19.2-46.2 25.7-.7.3-1.4.6-2.1.9-2.1.8-3.6 2.5-4.3 4.6-.6 2.1-.3 4.4 1 6.2l19.8 28.8c1.4 2 3.6 3.1 6 3.1.5 0 .9 0 1.4-.1 63.7-12.3 102.2-41 140.3-80.3 8.3-8.6 33.6-34.6 51.3-28.5l6.1 3.5c5.6 4.4 28.8 21.5 49.3 15.6 10.4-3 18-11.2 22.4-24.2s3.7-24.1-2.1-33c-6.7-10.4-18.9-14.5-26.1-16.1zm14.7 44.5c-2.9 8.4-7 13.3-12.7 14.9-11.7 3.4-28.5-6.8-36.6-13.3-.3-.2-.6-.5-.9-.6l-7.1-4.1c-.3-.2-.7-.4-1.1-.5-26.6-10.1-56.2 20.3-67.4 31.8-36.3 37.4-70.7 63.2-128 75.2l-12.1-17.6c14.3-6.5 28.7-14.8 42.9-24.6 28-19.3 48.7-41 61.7-64.5 8.3-15.1 13.4-30.9 15.1-47 2.8-27.1-2.2-48.5-15.3-65.4-.8-1-1.6-2-2.4-3-1.7-2.1-3.3-4-4.5-6-.1-.2-.2-.3-.3-.5-3.5-6.4-1.3-14.6 5.1-18.2 11.9-6.7 27.5 1.1 38.1 10.6 6.2 5.6 12.2 12.3 18.7 21 .4.5 1.9 3.1 3.3 5.3 10.7 17.5 11.8 19.3 17.2 18.6 2-.3 49.6-6.1 58.3 50.6.5 3.3 3.2 5.8 6.6 6.1.1 0 15 1.4 21 10.7 3.1 5.1 3.3 12 .4 20.5z" fill="#1d2228"></path></g></g></svg>