<!-- icon666.com - MILLIONS OF FREE VECTOR ICONS --><svg id="Capa_1" enable-background="new 0 0 512 512" viewBox="0 0 512 512" xmlns="http://www.w3.org/2000/svg"><g><g><path d="m418.972 356.608c-6.902.155-14.116.212-21.608.212s-14.706-.057-21.608-.212l-9.205 94.641c-1.346 13.834 9.527 25.815 23.426 25.815h14.775c13.899 0 24.771-11.981 23.426-25.815z" fill="#e9a761"></path><path d="m264.096 34.936c80.715 0 181 105.464 181 172.938 0 58.43-73.984 65.092-181 65.092s-181-6.662-181-65.092c0-67.474 100.285-172.938 181-172.938z" fill="#b36d3c"></path><path d="m444.748 214.463c0-.001 0-.001 0-.002-.002-.001-.005 0-.006-.001-16.067-9.006-32.341-13.874-47.378-13.874-26.26 0-56.295 14.821-82.405 40.664-4.377 4.332-8.441 8.785-12.179 13.306-12.323.3-25.236.411-38.684.411-36.028 0-68.304-.76-95.277-3.993-20.933-17.044-43.627-26.597-63.922-26.597-6.033 0-12.277.845-18.625 2.478.002.005.004.01.006.015h-.001c15.2 40.942 83.74 46.097 177.819 46.097 102.845 0 175.169-6.162 180.652-58.502 0-.001 0-.002 0-.002z" fill="#9b5e35"></path><path d="m300.773 272.606c-11.715.264-23.96.36-36.677.36s-24.961-.096-36.677-.36l-15.625 160.641c-2.284 23.481 16.17 43.817 39.762 43.817h25.078c23.592 0 42.046-20.336 39.762-43.817z" fill="#e9a761"></path><path d="m264.096 290.966c13.349 0 26.182-.104 38.424-.399l-1.747-17.961c-11.715.264-23.96.36-36.677.36s-24.961-.096-36.677-.36l-1.747 17.961c12.241.295 25.075.399 38.424.399z" fill="#c98c55"></path><path d="m397.364 216.586c47.553 0 106.636 62.134 106.636 101.886 0 34.424-43.587 38.349-106.636 38.349s-106.636-3.925-106.636-38.349c0-39.753 59.083-101.886 106.636-101.886z" fill="#b36d3c"></path><path d="m397.364 216.586c47.553 0 106.636 62.134 106.636 101.886 0 34.424-43.587 38.349-106.636 38.349s-106.636-3.925-106.636-38.349c0-39.753 59.083-101.886 106.636-101.886z" fill="#b36d3c"></path><path d="m397.364 374.82c8.126 0 15.926-.066 23.355-.254l-1.747-17.959c-6.902.155-14.116.212-21.608.212s-14.706-.057-21.608-.212l-1.747 17.959c7.429.188 15.229.254 23.355.254z" fill="#c98c55"></path><path d="m397.364 338.82c-57.451 0-98.736-3.263-105.615-29.887-.668 3.286-1.021 6.479-1.021 9.538 0 34.424 43.587 38.349 106.636 38.349s106.636-3.925 106.636-38.349c0-3.059-.353-6.252-1.02-9.538-6.88 26.624-48.165 29.887-105.616 29.887z" fill="#9b5e35"></path><path d="m104.896 240.376c43.21 0 96.896 56.459 96.896 92.58 0 31.28-39.606 34.846-96.896 34.846s-96.896-3.566-96.896-34.846c0-36.121 53.687-92.58 96.896-92.58z" fill="#b36d3c"></path><path d="m104.896 349.802c-51.673 0-88.955-2.905-95.77-26.426-.732 3.308-1.126 6.518-1.126 9.58 0 31.28 39.606 34.846 96.896 34.846s96.896-3.566 96.896-34.846c0-3.062-.394-6.273-1.127-9.58-6.814 23.521-44.095 26.426-95.769 26.426z" fill="#9b5e35"></path><path d="m124.531 367.61c-6.272.141-12.826.193-19.634.193s-13.363-.051-19.634-.193l-8.365 85.997c-1.223 12.57 8.657 23.457 21.286 23.457h13.425c12.63 0 22.509-10.887 21.286-23.457z" fill="#e9a761"></path><path d="m104.896 385.802c7.443 0 14.583-.061 21.381-.235l-1.747-17.958c-6.272.141-12.826.193-19.634.193s-13.363-.051-19.634-.193l-1.747 17.958c6.798.174 13.939.235 21.381.235z" fill="#c98c55"></path></g><path d="m494.708 271.829c-2.323-3.438-6.996-4.343-10.434-2.018-3.438 2.324-4.342 6.996-2.018 10.434 9.489 14.039 14.714 27.657 14.714 38.344 0 12.678-7.253 20.129-24.254 24.913-18.728 5.27-47.151 5.997-75.076 5.997s-56.348-.727-75.076-5.997c-17.001-4.784-24.254-12.235-24.254-24.913 0-16.798 13.082-40.6 33.327-60.638 21.468-21.248 46.141-33.933 66.003-33.933 19.985 0 44.78 12.805 66.326 34.253 2.94 2.927 7.699 2.917 10.627-.024s2.917-7.699-.024-10.627c-7.83-7.794-16.124-14.57-24.567-20.183 1.974-6.029 2.978-12.613 2.978-19.663 0-34.168-23.979-79.127-62.578-117.331-40.148-39.736-87.36-63.459-126.291-63.459-33.052 0-71.164 16.439-107.316 46.289-3.2 2.642-3.653 7.379-1.01 10.579 2.641 3.199 7.378 3.653 10.579 1.01 33.465-27.632 68.179-42.849 97.747-42.849 35.062 0 78.321 22.098 115.718 59.112 35.851 35.483 58.122 76.349 58.122 106.649 0 4.266-.448 8.173-1.327 11.81-13.439-6.853-26.843-10.596-38.983-10.596-23.731 0-52.358 14.31-76.576 38.28-5.763 5.704-10.984 11.669-15.582 17.733-12.009.326-25.273.479-41.372.479-31.32 0-67.11-.513-96.425-4.183-20.669-18.189-43.276-28.471-63.085-28.471-2.218 0-4.473.135-6.755.389-5.089-6.941-7.574-15.304-7.574-25.441 0-29.01 20.912-68.506 54.576-103.075 2.896-2.973 2.833-7.731-.141-10.626-2.973-2.895-7.73-2.833-10.626.141-36.842 37.833-58.838 80.286-58.838 113.56 0 10.891 2.375 20.583 7.052 28.959-15.976 5.352-32.57 16.042-47.758 31.074-21.304 21.085-34.537 46.104-34.537 65.295 0 18.115 10.933 30.376 32.496 36.444 11.855 3.336 26.561 4.886 44.175 5.548l-7.603 78.168c-1.967 16.488 12.207 32.107 28.807 31.745h13.451c16.602.362 30.775-15.258 28.808-31.745l-2.062-21.197c-.402-4.131-4.078-7.153-8.207-6.752-4.131.402-7.154 4.076-6.752 8.207l2.062 21.197c.965 7.933-5.86 15.453-13.849 15.261h-13.451c-7.989.193-14.813-7.328-13.848-15.261l7.71-79.262c8.232.103 17.497.103 25.729 0l2.745 28.221c.378 3.883 3.648 6.788 7.471 6.788.243 0 .489-.012.736-.036 4.131-.402 7.154-4.076 6.752-8.207l-2.639-27.126c17.614-.661 32.319-2.212 44.175-5.548 21.563-6.068 32.496-18.33 32.496-36.444 0-16.154-9.379-36.439-25.054-55.03 11.301.914 23.109 1.495 34.955 1.859l-14.875 152.93c-3.232 27.085 20.051 52.74 47.32 52.145h25.127c27.27.595 50.552-25.062 47.32-52.145l-7.337-75.434c14.313 4.267 30.347 5.85 51.075 6.651l-8.444 86.82c-2.114 17.716 13.115 34.497 30.951 34.108h14.803c17.837.389 33.065-16.393 30.951-34.108l-8.444-86.82c19.686-.708 36.075-2.405 49.239-6.11 23.365-6.575 35.212-19.824 35.212-39.38-.001-17.502-9.404-35.089-17.293-46.76zm-300.536 61.273c0 7.87-2.559 16.636-21.538 21.977-16.938 4.766-42.708 5.423-68.033 5.423s-51.095-.657-68.033-5.423c-18.979-5.341-21.538-14.107-21.538-21.977 0-15.09 11.807-36.527 30.079-54.612 19.382-19.183 41.621-30.635 59.492-30.635s40.111 11.452 59.492 30.635c18.272 18.085 30.079 39.521 30.079 54.612zm106.581 126.211c-6.24 6.877-14.792 10.664-24.078 10.664h-25.127c-9.286 0-17.837-3.787-24.078-10.664s-9.182-15.754-8.283-24.997l14.982-154.03c10.202.174 20.284.223 29.942.223 11.148 0 20.957-.073 29.943-.225l.19 1.957c-7.038 12.847-10.963 25.464-10.963 36.347 0 13.802 5.909 24.458 17.595 31.848l8.159 83.88c.9 9.242-2.041 18.12-8.282 24.997zm120.282-6.96c1.115 9.162-6.767 17.845-15.992 17.623h-14.803c-9.226.222-17.107-8.462-15.992-17.623l8.551-87.921c9.476.126 20.209.126 29.685 0z"></path></g></svg>