<!-- icon666.com - MILLIONS OF FREE VECTOR ICONS --><svg id="Layer_1" enable-background="new 0 0 497 497" viewBox="0 0 497 497" xmlns="http://www.w3.org/2000/svg"><g><path d="m281.371 256.268 28.328 168.376c6.199 36.846-23.833 72.356-61.199 72.356-37.367 0-67.399-35.504-61.199-72.355l28.328-168.376 32.607-20z" fill="#ffec96"></path><path d="m309.699 424.645-28.328-168.376-33.134-20-19.84 12.169 12.974 7.831 28.328 168.376c5.04 29.957-13.871 59.03-41.2 68.854 6.285 2.259 13.015 3.502 20.001 3.502 37.366-.001 67.398-35.511 61.199-72.356z" fill="#ffe057"></path><path d="m.087 61.835c0 29.123 45.579 196.541 248.413 196.541 174.5 0 248.498-136.194 248.498-180.138z" fill="#ffec96"></path><path d="m456.998 78.238c0 42.275-68.5 169.9-229.061 179.538 6.67.391 13.518.6 20.562.6 174.5 0 248.498-136.194 248.498-180.138z" fill="#ffe057"></path><path d="m423.999 111.5c-18.144 57.363-74.003 146.876-177.673 146.876-106.049 0-154.159-86.123-173.325-145.418l31.499-20.163 23.606 27.205c13.148 56.509 46.152 138.728 118.902 138.728 71.119 0 109.439-85.412 121.886-140.08l23.29-25.853z" fill="#e8b04f"></path><path d="m272.68 123.733c-2.898 56.438-10.64 134.72-24.444 134.72-14.273 0-21.04-76.147-23.917-134.121l24.18-31.537z" fill="#e8b04f"></path><path d="m356.975 53.288c-112.31-7.75-149.793-49.21-229.824-52.991-101.828-4.811-146.153 49.825-119.6 86.057 18.732 25.561 106.878 37.316 238.719 37.316s251.267-17.528 250.728-45.433c-.493-25.554-58.793-19.343-140.023-24.949z" fill="#fd9e35"></path><path d="m356.975 53.288c-112.31-7.75 99.53-.605 100.023 24.949.514 26.609-108.054 43.782-232.452 45.32 7.104.074 14.341.113 21.723.113 131.841 0 251.267-17.528 250.728-45.433-.492-25.554-58.792-19.343-140.022-24.949z" fill="#f7890f"></path><g><path d="m212.651 60.622c-.833 0-1.68-.14-2.51-.435-29.471-10.467-61.112-20.687-95.399-20.687-9.697 0-9.697-15 0-15 36.67 0 71.062 11.125 100.419 21.552 7.918 2.812 5.502 14.57-2.51 14.57z" fill="#f26900"></path></g><g><path d="m61.095 47.899c-7.927 0-10.445-11.583-2.645-14.521 7.329-2.76 15.512-4.91 24.324-6.389 9.563-1.604 12.047 13.187 2.483 14.793-7.857 1.319-15.098 3.214-21.52 5.633-.871.329-1.764.484-2.642.484z" fill="#f26900"></path></g></g></svg>