<!-- icon666.com - MILLIONS OF FREE VECTOR ICONS --><svg viewBox="0 0 60 60" xmlns="http://www.w3.org/2000/svg"><g id="Colour"><path d="m34.479 32.16a.5.5 0 0 1 -.27-.921l5.337-3.427-7.417 4.281a.5.5 0 0 1 -.523-.852l9.2-5.98-11.837 6.832a.5.5 0 0 1 -.522-.853l11-7.123-13.815 7.976a.5.5 0 0 1 -.524-.852l14.441-9.428-17.572 10.145a.5.5 0 0 1 -.516-.855l9.94-6.249-11.831 6.831a.5.5 0 0 1 -.515-.857l10.687-6.7-12.451 7.188a.5.5 0 0 1 -.519-.854l15.8-10.07-18.008 10.4a.5.5 0 0 1 -.519-.854l16.412-10.438-18.471 10.664a.5.5 0 0 1 -.512-.858l9.14-5.648-10.324 5.961a.5.5 0 0 1 -.518-.855l16.828-10.645-18.523 10.693a.5.5 0 0 1 -.51-.86l1.422-.865-2.089 1.213a.5.5 0 0 1 -.517-.856l16.488-10.4-17.797 10.269a.5.5 0 0 1 -.513-.858l11.6-7.2-12.4 7.16a.5.5 0 0 1 -.514-.857l10.551-6.539-11.149 6.435a.5.5 0 0 1 -.517-.854l16.383-10.4-16.9 9.757a.5.5 0 0 1 -.515-.857l13.7-8.66-13.491 7.789a.5.5 0 0 1 -.521-.853l14.694-9.463-13.658 7.887a.5.5 0 0 1 -.522-.852l12.4-8.068-10.972 6.333a.5.5 0 0 1 -.518-.855l4.624-2.936-3.244 1.872a.5.5 0 0 1 -.522-.853l3.873-2.5-2.071 1.2a.5.5 0 0 1 -.527-.849l3.145-2.1-.677.39a.5.5 0 0 1 -.54-.84l3.159-2.242a.5.5 0 0 1 .047-.835l6.032-3.482a.5.5 0 0 1 .54.84l-.557.4 4.83-2.788a.5.5 0 0 1 .528.849l-3.152 2.089 6.179-3.566a.5.5 0 0 1 .521.852l-3.877 2.5 6.277-3.618a.5.5 0 0 1 .518.855l-4.61 2.928 6.78-3.914a.5.5 0 0 1 .523.852l-12.411 8.072 15.224-8.787a.5.5 0 0 1 .521.853l-14.688 9.458 17.316-10a.5.5 0 0 1 .517.855l-13.7 8.655 15.777-9.103a.5.5 0 0 1 .518.854l-16.385 10.408 18.337-10.589a.5.5 0 0 1 .514.862l-10.542 6.528 11.822-6.828a.5.5 0 0 1 .514.858l-11.581 7.19 12.744-7.357a.5.5 0 0 1 .516.855l-16.5 10.41 17.9-10.336a.5.5 0 0 1 .51.86l-1.407.855 1.947-1.123a.5.5 0 0 1 .517.856l-16.817 10.639 17.985-10.384a.5.5 0 0 1 .513.859l-9.167 5.663 9.813-5.665a.5.5 0 0 1 .519.854l-16.422 10.436 17.326-10a.5.5 0 0 1 .519.854l-15.783 10.061 16.565-9.564a.5.5 0 0 1 .516.857l-10.679 6.694 11.108-6.413a.5.5 0 0 1 .516.856l-9.953 6.256 10.291-5.941a.5.5 0 0 1 .523.852l-14.437 9.425 14.973-8.641a.5.5 0 0 1 .521.852l-11 7.125 11.229-6.486a.5.5 0 0 1 .523.852l-9.2 5.981 9.319-5.38a.5.5 0 0 1 .52.854l-5.328 3.423 5.285-3.051a.5.5 0 0 1 .535.843l-9.404 6.521 9.433-5.446a.5.5 0 0 1 .531.845l-5.032 3.431 4.814-2.779a.5.5 0 0 1 .55.833l-4.484 3.356 3.636-2.1a.5.5 0 0 1 .5.865l-10.908 6.295a.5.5 0 0 1 -.549-.833l4.482-3.355-9.155 5.288a.5.5 0 0 1 -.531-.845l5.03-3.428-8.287 4.785a.5.5 0 0 1 -.535-.844l9.405-6.522-13.071 7.547a.494.494 0 0 1 -.25.067z" fill="#eb5565"></path><path d="m27.055 28.141a.5.5 0 0 1 -.28-.915l3.336-2.243-5.353 3.09a.5.5 0 0 1 -.534-.844l5.51-3.8-7.745 4.471a.5.5 0 0 1 -.522-.853l.522-.338-1.685.973a.5.5 0 0 1 -.526-.85l2.461-1.623-3.717 2.146a.5.5 0 0 1 -.542-.839l6.92-4.98-9.02 5.207a.5.5 0 0 1 -.544-.837l6.374-4.622-8.169 4.716a.5.5 0 0 1 -.541-.839l5.252-3.812-6.582 3.8a.5.5 0 0 1 -.546-.835l3.976-2.914-4.822 2.783a.5.5 0 0 1 -.537-.842l.7-.49-.865.5a.5.5 0 0 1 -.618-.772l2-2.176-.92.532a.5.5 0 0 1 -.5-.866l3.76-2.17a.5.5 0 0 1 .618.771l-2 2.175 7.788-4.5a.5.5 0 0 1 .537.842l-.7.494 2.959-1.714a.5.5 0 0 1 .546.836l-3.976 2.917 6.977-4.028a.5.5 0 0 1 .544.837l-5.249 3.811 8.2-4.736a.5.5 0 0 1 .544.836l-6.378 4.625 9.324-5.382a.5.5 0 0 1 .542.838l-6.913 4.979 9.669-5.582a.5.5 0 0 1 .525.85l-2.455 1.616 3.89-2.245a.5.5 0 0 1 .522.852l-.524.34 1.671-.965a.5.5 0 0 1 .534.844l-5.513 3.807 7.291-4.209a.5.5 0 0 1 .53.847l-3.327 2.238 4.6-2.656a.5.5 0 0 1 .542.839l-5.686 4.081 7.34-4.237a.5.5 0 0 1 .537.842l-3.907 2.738 5.027-2.9a.5.5 0 0 1 .546.835l-4.422 3.253 5.425-3.132a.5.5 0 0 1 .572.815l-3.972 3.341 4.506-2.6a.5.5 0 0 1 .593.8l-1.255 1.172.059-.033a.5.5 0 0 1 .5.865l-3.791 2.184a.5.5 0 0 1 -.592-.8l1.253-1.178-5.687 3.282a.5.5 0 0 1 -.572-.815l3.971-3.34-8.342 4.815a.5.5 0 0 1 -.546-.835l4.427-3.246-7.082 4.089a.5.5 0 0 1 -.537-.842l3.912-2.741-6.207 3.583a.5.5 0 0 1 -.542-.839l5.681-4.077-8.516 4.917a.5.5 0 0 1 -.254.068z" fill="#d94653"></path><path d="m29.945 59.462a.5.5 0 0 1 -.306-.9l1.867-1.453-3.406 1.974a.5.5 0 0 1 -.56-.825l4.611-3.632-6.061 3.5a.5.5 0 0 1 -.546-.836l4.656-3.417-5.452 3.148a.5.5 0 0 1 -.546-.836l5.915-4.336-6.466 3.732a.5.5 0 0 1 -.541-.84l5.9-4.211-6.091 3.517a.5.5 0 0 1 -.525-.85l1.213-.8-1.059.61a.5.5 0 0 1 -.538-.841l6.32-4.466-6.017 3.474a.5.5 0 0 1 -.529-.848l3.439-2.316-2.9 1.672a.5.5 0 0 1 -.541-.839l7.043-5.043-6.389 3.688a.5.5 0 0 1 -.529-.848l2.5-1.672-1.9 1.1a.5.5 0 0 1 -.526-.85l1.326-.878-.736.425a.5.5 0 0 1 -.537-.842l5.59-3.924-4.959 2.863a.5.5 0 0 1 -.529-.847l2.48-1.666-1.884 1.081a.5.5 0 0 1 -.538-.841l5.6-3.956-4.967 2.867a.5.5 0 0 1 -.541-.839l5.993-4.287-5.351 3.089a.5.5 0 0 1 -.533-.845l3.714-2.555-3.1 1.791a.5.5 0 0 1 -.531-.845l2.928-2-2.326 1.345a.5.5 0 0 1 -.529-.847l1.954-1.318-1.357.784a.5.5 0 0 1 -.526-.85l.473-.312a.5.5 0 0 1 -.422-.892l3.813-2.65-3.2 1.844a.5.5 0 0 1 -.539-.841l3.731-2.643-3.108 1.794a.5.5 0 0 1 -.552-.831l3.752-2.839-3.108 1.795a.5.5 0 0 1 -.552-.831l1.575-1.194-.951.549a.5.5 0 0 1 -.571-.815l1.051-.883-.409.235a.5.5 0 0 1 -.654-.726l.545-.751a.512.512 0 0 1 -.5-.246.5.5 0 0 1 .183-.683l1.794-1.036a.5.5 0 0 1 .654.727l-.49.675 3.315-1.914a.5.5 0 0 1 .571.816l-1.052.884 2.959-1.705a.5.5 0 0 1 .551.831l-1.576 1.195 3.147-1.817a.5.5 0 0 1 .552.831l-3.752 2.838 5.448-3.145a.5.5 0 0 1 .539.841l-3.731 2.643 4.217-2.434a.5.5 0 0 1 .535.842l-3.817 2.654 3.357-1.939a.5.5 0 0 1 .527.85l-.383.254a.5.5 0 0 1 .441.887l-1.957 1.319 1.494-.863a.5.5 0 0 1 .532.846l-2.931 2 2.469-1.425a.5.5 0 0 1 .533.845l-3.716 2.556 3.258-1.881a.5.5 0 0 1 .541.839l-5.993 4.283 5.548-3.2a.5.5 0 0 1 .538.841l-5.6 3.953 5.148-2.972a.5.5 0 0 1 .529.848l-2.478 1.669 2.021-1.166a.5.5 0 0 1 .537.841l-5.587 3.921 5.138-2.965a.5.5 0 0 1 .526.849l-1.335.881.871-.5a.5.5 0 0 1 .529.849l-2.5 1.668 2.032-1.173a.5.5 0 0 1 .541.839l-7.039 5.046 6.6-3.811a.5.5 0 0 1 .53.848l-3.45 2.323 2.992-1.727a.5.5 0 0 1 .538.841l-6.318 4.462 5.874-3.391a.5.5 0 0 1 .526.85l-1.222.808.756-.436a.5.5 0 0 1 .541.84l-5.892 4.208 5.445-3.144a.5.5 0 0 1 .546.836l-5.916 4.338 5.469-3.158a.5.5 0 0 1 .546.836l-4.66 3.415 4.127-2.383a.5.5 0 0 1 .56.825l-4.614 3.635 3.676-2.122a.5.5 0 0 1 .557.827l-1.866 1.451.4-.23a.5.5 0 0 1 .5.865l-6.679 3.865a.5.5 0 0 1 -.255.062z" fill="#f4d1b5"></path></g><g id="Outer_Lines" fill="#262626" data-name="Outer Lines"><path d="m22.176 32.062q-.148 3-.295 5.99c-.366 7.45-3.192 20.377 7.668 21.314a.51.51 0 0 0 .074-.007 1.274 1.274 0 0 0 .268 0c8.506-.69 8.893-8.13 8.561-14.889q-.306-6.231-.613-12.46c6.465-.64 22.847-2.531 21.715-11.289-.834-6.462-5.821-12.531-11.2-15.78-15.272-9.214-41.399-4.873-47.289 13.683-3.438 10.833 13.557 12.697 21.111 13.438zm15.371-5.962c-.049-1.007.351-4.088-.243-4.978-.782-1.173-3.911-1.329-5.1-1.429-2.079-.174-8.087-.543-9.507 1.724-.7 1.113-.624 3.555-.517 5.735-4.216-.562-14.878-2.385-11.841-6.69 1.676-2.377 6.887-2.992 9.438-3.394a64 64 0 0 1 9.944-.723c5.542 0 12.093.3 17.231 2.666 1.456.669 3.624 1.728 3.225 3.692-.7 3.424-9.256 4.221-12.573 4.566q-.028-.579-.057-1.169zm-7.26 32.508c-10.568-1.067-7.226-15.4-6.875-22.562q.169-3.448.341-6.9.084-1.692.167-3.386c.141-2.9-.672-4.463 2.628-5.158 1.632-.344 7.156-.678 8.68.611.923.78.383.732.7 1.668.458 1.378.169 3.49.243 4.978q.152 3.092.306 6.183c.323 6.683 4.06 23.537-6.19 24.57zm-27.218-41.714c4.449-11.232 16-15.65 27.448-15.465 10.556.171 21.1 4.334 25.8 14.324.865 1.838 2.3 4.892 1.9 7-1.257 6.67-14.8 7.936-20.412 8.471q-.082-1.659-.164-3.32c3.947-.461 16-2.108 13.785-7.119-.992-2.248-5.23-3.162-7.228-3.661a57.328 57.328 0 0 0 -13.875-1.472c-5.715 0-16.3-.158-20.8 4.381-5.3 5.345 9.1 7.483 12.7 7.929.042.866.076 1.655.046 2.248l-.048.97c-6.1-.587-15.935-1.592-19.574-6.886-1.571-2.284-.514-5.039.422-7.4z"></path><path d="m26.7 5.45q.5-.039 1-.069c.282-.016.793-.1.966-.359s-.15-.3-.356-.288q-.5.029-1 .069c-.284.023-.791.1-.966.359s.143.305.356.288z"></path><path d="m8.686 14.605c3.466-4.841 8.729-7.32 14.434-8.483.9-.185.651-1.082-.241-.9-6.193 1.263-11.82 4.032-15.566 9.265-.432.603 1.041.583 1.373.118z"></path></g></svg>