<!-- icon666.com - MILLIONS OF FREE VECTOR ICONS --><svg id="Layer_1" enable-background="new 0 0 512.008 512.008" viewBox="0 0 512.008 512.008" xmlns="http://www.w3.org/2000/svg"><g><g><path d="m288.657 263.776 28.328 168.376c6.199 36.846-23.833 72.355-61.199 72.355-37.367 0-67.399-35.504-61.199-72.355l28.328-168.376 32.607-20z" fill="#ffec96"></path><path d="m316.986 432.153-28.328-168.376-33.134-20-19.84 12.169 12.974 7.831 28.328 168.376c5.04 29.957-13.871 59.03-41.2 68.854 6.285 2.259 13.015 3.502 20.001 3.502 37.366-.001 67.398-35.511 61.199-72.356z" fill="#ffe057"></path><path d="m7.373 69.343c0 29.123 45.579 196.541 248.413 196.541 174.5 0 248.498-136.194 248.498-180.138z" fill="#ffec96"></path><path d="m464.285 85.746c0 42.275-68.5 169.9-229.061 179.538 6.67.391 13.518.6 20.562.6 174.5 0 248.498-136.194 248.498-180.138z" fill="#ffe057"></path><path d="m431.285 119.008c-18.144 57.363-74.003 146.876-177.673 146.876-106.049 0-154.159-86.123-173.325-145.418l31.499-20.164 23.606 27.205c13.148 56.509 46.152 138.728 118.902 138.728 71.119 0 109.439-85.412 121.886-140.08l23.29-25.853z" fill="#e8b04f"></path><path d="m279.967 131.241c-2.898 56.438-10.64 134.72-24.444 134.72-14.273 0-21.04-76.147-23.917-134.121l24.18-31.537z" fill="#e8b04f"></path><path d="m364.262 60.796c-112.311-7.75-149.793-49.21-229.824-52.991-101.829-4.811-146.153 49.825-119.6 86.057 18.732 25.561 106.878 37.316 238.719 37.316s251.267-17.528 250.729-45.433c-.495-25.554-58.794-19.343-140.024-24.949z" fill="#fd9e35"></path><path d="m364.262 60.796c-112.311-7.75 99.53-.605 100.023 24.949.514 26.609-108.054 43.782-232.452 45.32 7.104.074 14.341.113 21.723.113 131.841 0 251.267-17.528 250.728-45.433-.493-25.554-58.792-19.343-140.022-24.949z" fill="#f7890f"></path></g><g fill="#060606"><path d="m122.029 47.008c33.35 0 64.297 9.64 95.398 20.687 8.656 3.077 14.379-10.81 5.017-14.136-29.741-10.563-55.426-19.687-89.163-21.281-4.992-.236-14.761-2.388-17.728 3.445-2.536 4.984.526 11.285 6.476 11.285z"></path><path d="m68.381 55.407c7.379 0 16.685-4.861 24.162-6.117 9.256-1.554 7.194-16.416-2.483-14.793-8.812 1.479-16.995 3.629-24.324 6.389-7.426 2.798-5.42 14.521 2.645 14.521z"></path><path d="m511.785 85.746c0-.026-.004-.051-.004-.077 0-.023.003-.045.002-.068-.37-19.136-22.232-23.484-29.416-24.913-40.421-8.039-83.231-4.398-124.204-7.926-43.353-3.733-84.161-14.848-125.004-29.356-30.802-10.94-59.895-21.274-98.368-23.092-73.994-3.497-115.179 22.851-129.044 48.674-12.096 22.525-1.824 49.626 7.008 71.373 9.177 22.598 21.596 43.905 36.929 62.886 40.863 50.587 100.437 79.782 164.431 87.641l-16.615 98.748c-1.626 9.663 13.174 12.108 14.792 2.488l16.78-99.74c17.888 1.359 35.522 1.384 53.417-.069l27.101 161.081c5.385 32.007-21.355 63.611-53.803 63.611-32.455.001-59.188-31.599-53.803-63.611l4.054-24.095c1.558-9.256-13.164-12.165-14.792-2.489l-4.054 24.096c-6.908 41.063 27 81.101 68.595 81.1 41.589-.001 75.504-40.037 68.595-81.1l-26.948-160.174c73.849-9.623 123.378-43.744 153.291-73.086 40.086-39.32 61.06-86.057 61.06-111.902zm-492.823-29.662c20.182-37.585 78.438-42.522 115.121-40.787 47.29 2.234 89.475 22.343 134.113 35.679 49.398 14.758 99.649 18.115 150.913 19.951 7.889.283 90.229-.325 73.846 20.134-11.169 13.948-79.458 23.124-108.238 26.221-43.522 4.685-87.402 6.397-131.162 6.397-66.874 0-120.928-3.024-160.661-8.989-49.681-7.458-66.58-17.854-72.008-25.26-7.049-9.621-7.525-22.916-1.924-33.346zm236.458 200.137c-16.388-32.99-14.006-81.601-15.951-117.59 10.863.072 21.726.066 32.588-.074-2.088 36.353-.256 84.153-16.637 117.664zm-30.981-117.746c2.056 38.461 1.862 82.485 15.301 119.03-23.614-4.061-44.126-18.226-61.123-42.279-17.812-25.208-28.367-56.328-34.352-79.985 23.822 1.732 50.595 2.813 80.174 3.234zm-95.932-4.51c6.05 25.421 17.456 61.041 37.86 89.918 4.857 6.874 9.987 13.034 15.373 18.495-15.318-7.579-29.353-17.826-42.02-30.73-25.415-25.891-40.668-57.649-49.46-82.188.137.021.27.042.407.063 11.473 1.722 24.099 3.203 37.84 4.442zm142.769 122.963c13.193-36.665 13.643-80.113 15.822-118.643 27.108-.633 54.319-2.038 79.97-4.26-4.749 18.201-15.439 51.123-35.901 79.365-17.476 24.119-37.565 38.698-59.891 43.538zm-209.925-83.106c-17.71-21.924-28.979-43.963-35.983-62.235 11.377 6.031 27.329 11.001 48.055 14.996 13.907 42.596 37.623 83.56 73.352 111.441-33.256-14.014-62.741-36.122-85.424-64.202zm293.965 67.209c16.489-11.738 29.707-25.181 39.894-37.691 6.123-7.52-5.509-16.991-11.632-9.472-12.942 15.894-31.157 33.427-55.243 46.202 27.366-28.053 45.525-69.433 54.569-107.543 13.381-1.377 26.206-2.993 38.226-4.853-3.967 10.812-8.976 21.811-14.736 32.256-4.466 8.1 8.13 16.32 13.136 7.243 7.551-13.694 13.908-28.311 18.461-42.373 22.439-4.214 41.102-9.429 53.906-15.7-21.342 61.224-77.06 109.444-136.581 131.931z"></path></g></g></svg>