<!-- icon666.com - MILLIONS OF FREE VECTOR ICONS --><svg viewBox="0 0 128 128" xmlns="http://www.w3.org/2000/svg"><g><path d="m64 1.747c22.183 0 40.165 17.013 51.235 31.066a25.088 25.088 0 0 1 -1.6 32.783 25.142 25.142 0 0 1 -28.127 5.79l-11.608-4.974a25.139 25.139 0 0 0 -19.8 0l-11.61 4.974a25.142 25.142 0 0 1 -28.127-5.786 25.087 25.087 0 0 1 -1.6-32.783c11.072-14.057 29.054-31.07 51.237-31.07z" fill="#6d4c41"></path><path d="m108.952 39.513a1.747 1.747 0 0 1 -1.376-.667c-7.217-9.162-14.745-16.166-22.376-20.818a1.75 1.75 0 0 1 1.822-2.988c7.987 4.869 15.828 12.15 23.3 21.64a1.75 1.75 0 0 1 -1.374 2.833z" fill="#4e342e"></path><path d="m78.343 104.524a21.025 21.025 0 0 1 -2.843-10.565v-26.859l-1.6-.688a25.139 25.139 0 0 0 -19.8 0l-1.6.688v26.859a21.025 21.025 0 0 1 -2.847 10.565 21.03 21.03 0 0 0 -1.253 18.576l1.3 3.148h28.608l1.3-3.148a21.03 21.03 0 0 0 -1.262-18.575z" fill="#ffdaaa"></path></g></svg>