<!-- icon666.com - MILLIONS OF FREE VECTOR ICONS --><svg viewBox="0 0 64 64" xmlns="http://www.w3.org/2000/svg"><g id="c"><path d="m32 61c-4.53 0-8.02-3.7-8.02-8.01 0-.57.06-1.16.19-1.75l3.24-12.9.59-2.34h8l.59 2.34 3.24 12.9c1.11 5.01-2.7 9.76-7.83 9.76z" fill="#f9c39b"></path><path d="m36.59 38.34-1.38-.28-3.21 2.14-3.21-2.14-1.38.28.27-1.08 1.32-.26 3 2 3-2 1.32.26z" fill="#d3976a"></path><path d="m42 37-.77.39c-.8.39-1.7.52-2.58.34l-2.33-.47-1.32-.26-3 2-3-2-1.32.26-2.33.47c-.88.18-1.78.05-2.58-.34l-.77-.39 5-4h10z" fill="#e8a670"></path><path d="m46.137 32.149c-9.425 2.467-18.849 2.467-28.274 0-2.148-.562-3.386-2.82-2.776-4.955l6.147-16.687c1.662-4.51 5.959-7.507 10.765-7.507 4.807 0 9.104 2.996 10.765 7.507l6.147 16.687c.61 2.135-.627 4.393-2.776 4.955z" fill="#a67c52"></path><g fill="#8e6947"><path d="m37.999 30.638c-.499 0-.931-.373-.992-.881-.065-.548.326-1.046.874-1.112 1.308-.157 2.627-.367 3.924-.626.541-.107 1.067.243 1.176.785s-.243 1.068-.785 1.176c-1.347.269-2.718.488-4.076.65-.041.005-.081.007-.12.007z"></path><path d="m43.474 25c-.407 0-.789-.25-.938-.655l-2.947-8c-.19-.518.074-1.093.593-1.284s1.092.074 1.284.593l2.947 8c.19.518-.074 1.093-.593 1.284-.114.042-.23.062-.346.062z"></path><path d="m20.158 26c-.115 0-.231-.02-.346-.062-.519-.191-.783-.766-.593-1.284l2.946-8c.191-.519.767-.781 1.284-.593.519.191.783.766.593 1.284l-2.946 8c-.149.404-.531.655-.938.655z"></path><path d="m24.21 15c-.115 0-.231-.02-.346-.062-.519-.191-.783-.766-.593-1.284l.777-2.11c.127-.344.278-.685.45-1.01.208-.395.449-.776.718-1.133.332-.442.958-.531 1.399-.201.442.332.532.958.2 1.4-.204.273-.389.565-.548.867-.13.247-.245.503-.343.769l-.777 2.11c-.149.404-.531.655-.938.655z"></path></g><path d="m35.894 55c-.084 0-.17-.01-.255-.033-.534-.14-.854-.687-.713-1.221.12-.461.129-.953.024-1.423l-1.802-8.106c-.119-.539.221-1.073.76-1.193.539-.118 1.074.219 1.193.759l1.802 8.106c.173.779.158 1.597-.044 2.365-.117.449-.522.746-.966.746z" fill="#e2b08f"></path><path d="m32 58c-.879 0-1.742-.229-2.498-.663-.479-.275-.645-.886-.369-1.365.274-.479.884-.645 1.365-.369.672.385 1.507.494 2.254.304.535-.139 1.08.186 1.217.721s-.186 1.08-.721 1.217c-.405.104-.825.156-1.248.156z" fill="#e2b08f"></path></g><g id="d"><path d="m14.593 30.794c.663 1.162 1.734 1.987 3.018 2.323 2.066.541 4.139.958 6.215 1.265l-2.425 1.819c-.277.208-.428.544-.396.89s.239.649.549.805l.772.386c.99.495 2.133.649 3.217.431l.404-.081-2.754 12.391c-.597 2.685.049 5.456 1.77 7.602 1.722 2.146 4.287 3.377 7.038 3.377s5.316-1.231 7.038-3.377c1.721-2.146 2.366-4.917 1.77-7.602l-2.754-12.391.404.081c1.089.219 2.228.064 3.217-.431l.772-.386c.31-.155.518-.459.549-.805s-.119-.682-.396-.89l-2.425-1.819c2.076-.307 4.149-.724 6.215-1.265 1.283-.336 2.354-1.161 3.018-2.323.666-1.168.837-2.581.444-3.945l-6.147-16.688c-1.799-4.881-6.503-8.161-11.704-8.161s-9.905 3.28-11.704 8.161l-6.171 16.759c-.369 1.293-.198 2.706.468 3.874zm24.262 20.661c.465 2.09-.037 4.247-1.377 5.917s-3.336 2.628-5.478 2.628-4.138-.958-5.478-2.628-1.842-3.826-1.377-5.917l2.945-13.253.699-.14 2.655 1.77c.168.112.361.168.555.168s.387-.056.555-.168l2.655-1.77.699.14 2.945 13.253zm-1.454-16.655 2.604 1.954c-.38.072-.774.073-1.154-.003l-3.654-.731c-.263-.053-.531.001-.751.148l-2.445 1.63-2.445-1.63c-.22-.147-.488-.201-.751-.148l-3.654.731c-.38.077-.774.076-1.154.003l2.604-1.954c.025-.019.037-.046.059-.066 1.779.172 3.56.258 5.341.258s3.562-.087 5.341-.258c.023.02.035.048.059.066zm-21.375-7.26 6.147-16.688c1.511-4.099 5.46-6.853 9.827-6.853s8.316 2.754 9.827 6.853l6.124 16.616c.226.791.126 1.62-.281 2.334-.395.69-1.028 1.18-1.786 1.379-9.213 2.412-18.553 2.412-27.768 0-.758-.199-1.392-.688-1.786-1.379-.407-.715-.507-1.543-.305-2.263z"></path><path d="m37.999 30.638c.039 0 .079-.002.12-.007 1.358-.163 2.729-.381 4.076-.65.542-.108.894-.635.785-1.176s-.635-.892-1.176-.785c-1.297.259-2.616.469-3.924.626-.548.065-.939.563-.874 1.112.062.508.493.881.992.881z"></path><path d="m42.535 24.346c.149.404.531.655.938.655.115 0 .231-.02.346-.062.519-.191.783-.766.593-1.284l-2.947-8c-.192-.519-.766-.784-1.284-.593s-.783.766-.593 1.284z"></path><path d="m19.812 25.938c.114.042.23.062.346.062.407 0 .789-.25.938-.655l2.946-8c.19-.519-.074-1.093-.593-1.284-.518-.188-1.093.074-1.284.593l-2.946 8c-.19.519.074 1.093.593 1.284z"></path><path d="m23.864 14.938c.114.042.23.062.346.062.407 0 .789-.25.938-.655l.777-2.11c.098-.266.213-.522.343-.769.159-.302.344-.593.548-.867.332-.442.242-1.068-.2-1.4-.441-.331-1.067-.241-1.399.201-.269.357-.51.739-.718 1.133-.172.326-.323.666-.45 1.01l-.777 2.11c-.19.518.074 1.093.593 1.284z"></path><path d="m33.908 43.024c-.539.12-.879.654-.76 1.193l1.802 8.106c.104.47.096.962-.024 1.423-.141.534.179 1.081.713 1.221.085.022.171.033.255.033.443 0 .849-.297.966-.746.202-.768.217-1.586.044-2.365l-1.802-8.106c-.119-.54-.654-.877-1.193-.759z"></path><path d="m32.752 55.906c-.747.19-1.582.081-2.254-.304-.481-.276-1.091-.11-1.365.369-.275.479-.109 1.09.369 1.365.756.434 1.619.663 2.498.663.423 0 .843-.053 1.248-.156.535-.137.857-.682.721-1.217s-.682-.859-1.217-.721z"></path></g></svg>