<!-- icon666.com - MILLIONS OF FREE VECTOR ICONS --><svg id="Layer_1" enable-background="new 0 0 512 512" viewBox="0 0 512 512" xmlns="http://www.w3.org/2000/svg" xmlns:xlink="http://www.w3.org/1999/xlink"><linearGradient id="lg1"><stop offset="0" stop-color="#fff33b"></stop><stop offset=".0401" stop-color="#fee72e"></stop><stop offset=".1171" stop-color="#fed51b"></stop><stop offset=".1964" stop-color="#fdca10"></stop><stop offset=".2809" stop-color="#fdc70c"></stop><stop offset=".6685" stop-color="#f3903f"></stop><stop offset=".8876" stop-color="#ed683c"></stop><stop offset="1" stop-color="#e93e3a"></stop></linearGradient><linearGradient id="SVGID_1_" gradientUnits="userSpaceOnUse" x1="11.522" x2="508.957" xlink:href="#lg1" y1="256.011" y2="256.011"></linearGradient><linearGradient id="SVGID_2_" gradientUnits="userSpaceOnUse" x1="11.548" x2="508.967" xlink:href="#lg1" y1="119.186" y2="119.186"></linearGradient><g><path d="m390.135 26.762c-5.901-1.651-12.163-2.489-18.609-2.489-15.882 0-33.025 4.877-52.41 14.91-7.033 3.64-13.938 7.665-20.616 11.558-13.182 7.684-25.632 14.941-39.189 19.637-13.332 4.619-28.099 6.863-45.144 6.863-18.198 0-36.998-2.625-52.988-5.193-9.397-1.509-21.092-3.388-32.466-3.388-15.26 0-27.528 3.415-37.506 10.438-16.031 11.284-23.844 32.164-20.586 51.116-.355.868-.57 1.802-.576 2.779-.161 24.931 9.093 50.445 25.391 70 16.982 20.378 35.385 28.261 57.677 36.448 22.365 8.214 45.253 14.415 68.486 18.604 11.089 16.019 16.556 39.815 14.021 62.05-3.35 29.379-6.303 58.661-8.779 87.032-1.372 15.719-3.079 35.282 5.799 52.136 9.265 17.588 29.511 28.484 50.551 28.484 4.755 0 9.553-.557 14.271-1.719 22.189-5.464 41.663-22.926 52.09-46.71 8.249-18.816 11.2-41.727 8.773-68.093-2.958-32.134 2.724-65.024 8.218-96.831 1.304-7.548 2.652-15.352 3.868-23.046.095-.6.108-1.193.061-1.774 13.129-6.063 24.514-13.959 34.09-23.678 26.358-26.754 39.6-65.908 36.428-107.554.203-1.165.364-2.344.47-3.54 5.224-59.432-25.027-80.68-51.325-88.04zm-290.295 64.602c7.467-5.255 16.641-7.704 28.872-7.704 10.177 0 21.216 1.773 30.087 3.198 16.574 2.662 36.114 5.382 55.366 5.382 18.744 0 35.117-2.515 50.054-7.689 14.938-5.174 28.611-13.145 41.833-20.852 6.518-3.799 13.258-7.728 19.957-11.195 17.203-8.903 32.091-13.231 45.516-13.231 5.081 0 9.981.651 14.566 1.934 30.722 8.598 43.945 32.241 40.425 72.281-1.331 15.14-15.592 28.386-28.174 40.073l-1.26 1.172c-1.46.662-2.684 1.778-3.471 3.197-15.82 14.369-32.896 25.62-50.803 33.448-19.328 8.449-40.335 12.916-60.753 12.916-17.698 0-34.394-3.272-49.622-9.727-9.68-4.103-18.701-9.401-28.251-15.011-3.748-2.201-7.622-4.477-11.508-6.653-4.306-2.412-8.145-4.43-11.735-6.167-11.374-5.506-21.857-8.866-32.051-10.271-1.863-.257-3.717-.382-5.667-.382-4.832 0-9.145.772-13.315 1.52-3.556.637-6.914 1.238-10.241 1.27h-.154c-11.301.001-25.729-11.617-31.08-22.005-.818-1.589-1.476-3.259-1.997-4.98-.054-.619-.184-1.24-.401-1.852-.07-.199-.153-.389-.238-.578-3.003-13.704 2.587-30.028 14.045-38.094zm261.904 145.673c-6.6 2.87-13.697 5.251-21.292 7.132 11.68-14.616 21.452-30.627 29.154-47.789.341-.761.539-1.548.617-2.335 6.188-3.714 12.252-7.815 18.174-12.297-5.222 19.02-13.869 37.061-25.533 53.024-.516.706-.882 1.473-1.12 2.265zm-85.58 12.054c-6.776-9.1-11.304-19.83-13.115-30.982 6.211.784 12.551 1.185 19.006 1.185 7.278 0 14.621-.522 21.944-1.533l-9.66 28.522c-.341 1.006-.724 2.101-1.146 3.215-1.52.005-3.051-.001-4.597-.022-4.151-.056-8.294-.199-12.432-.385zm-117.88-23.729c-.317-.116-.629-.232-.943-.348-12.001-15.613-21.639-33.43-28.167-52.061 1.14-.187 2.264-.387 3.376-.586 3.688-.661 7.172-1.285 10.671-1.285 1.258 0 2.442.079 3.62.241 5.761.794 11.711 2.381 17.988 4.772-3.175 18.758.459 38.362 9.807 54.866-5.481-1.745-10.933-3.608-16.352-5.599zm38.923 11.117c-13.347-14.082-20.096-34.591-18.125-53.881 1.973 1.03 4.043 2.149 6.263 3.392 3.752 2.102 7.56 4.338 11.241 6.5 3.058 1.796 6.156 3.609 9.293 5.395.945 15.526 5.497 30.802 13.142 44.41-7.001-1.361-13.972-2.892-20.899-4.636-.261-.414-.565-.811-.915-1.18zm42.004 9.214c-8.906-11.508-14.848-25.159-17.277-39.394 1.536.716 3.082 1.416 4.647 2.08 6.755 2.863 13.76 5.159 20.976 6.9 1.119 11.357 4.577 22.486 10.041 32.542-6.149-.57-12.28-1.27-18.387-2.128zm81.719-31.162c9.367-2.287 18.589-5.377 27.485-9.238-8.502 15.471-18.926 29.772-31.123 42.661-.083.088-.156.183-.234.274-2.549.274-5.14.506-7.775.691zm-213.971-21.14c-7.908-9.489-13.876-20.595-17.577-32.307 7.064 5.975 15.549 10.64 24.081 12.209 4.549 14.086 10.756 27.8 18.337 40.644-8.997-4.979-17.094-11.25-24.841-20.546zm244.803 78.45c-5.66 32.767-11.513 66.65-8.373 100.759 2.192 23.81-.357 44.231-7.574 60.696-8.568 19.542-24.246 33.811-41.939 38.168-18.788 4.626-39.857-3.803-47.964-19.192-6.823-12.952-5.328-30.079-4.127-43.841 2.464-28.239 5.404-57.388 8.739-86.636 2.416-21.189-1.307-43.085-9.897-60.791 10.173 1.34 20.4 2.315 30.673 2.882.371.056.745.094 1.121.094.113 0 .225-.023.338-.028 5.203.269 10.416.452 15.639.522 1.281.017 2.553.025 3.818.025 23.393 0 44.186-2.926 62.283-8.731-.893 5.388-1.825 10.794-2.737 16.073zm42.114-56.472c-1.256 1.275-2.557 2.509-3.889 3.713 8.441-16.679 14.243-34.663 17.109-53.177l1.455-1.353c5.468-5.078 11.461-10.65 16.828-16.817-3.314 26.329-14.206 50.078-31.503 67.634z" fill="url(#SVGID_1_)"></path><path d="m218.027 147.917c7.044 3.225 14.502 3.765 21.082 4.24l52.136 3.769c7.309.528 13.408.932 19.807.932h.002c10.879 0 19.692-1.243 27.732-3.912 16.934-5.622 29.321-18.293 32.329-33.069 1.89-9.282-.627-19.469-6.733-27.25-5.366-6.839-12.694-10.778-20.632-11.09-9.859-.391-18.1 4.532-25.299 8.854-2.364 1.419-4.598 2.76-6.813 3.886-11.316 5.751-24.232 6.489-34.221 6.489-5.584 0-11.414-.264-17.052-.52-7.055-.321-14.384-.652-21.54-.495-7 .152-15.146.842-22.486 4.795-9.031 4.863-14.458 13.846-13.828 22.884.595 8.527 6.541 16.377 15.516 20.487zm5.424-30.165c4.541-2.446 10.485-2.892 15.701-3.006 1.165-.025 2.332-.037 3.503-.037 5.574 0 11.397.264 17.029.52 5.806.264 11.809.536 17.733.536 11.661 0 26.862-.923 41.017-8.117 2.687-1.365 5.254-2.907 7.738-4.397 5.771-3.464 11.221-6.736 16.476-6.736.17 0 .341.003.513.01 4.682.185 7.913 3.438 9.422 5.362 3.373 4.299 4.843 10.046 3.835 14.998-1.91 9.383-10.686 17.95-22.357 21.825-6.47 2.148-13.78 3.148-23.006 3.148-.001 0-.002 0-.002 0-6.366 0-12.933-.475-18.726-.893l-52.135-3.769c-5.574-.403-11.337-.82-15.919-2.918-3.211-1.47-6.559-4.481-6.797-7.894-.212-3.023 2.301-6.653 5.975-8.632z" fill="url(#SVGID_2_)"></path></g></svg>