<!-- icon666.com - MILLIONS OF FREE VECTOR ICONS --><svg id="Capa_1" enable-background="new 0 0 512 512" viewBox="0 0 512 512" xmlns="http://www.w3.org/2000/svg"><g><g><path d="m498.128 198.881c-21.111-90.581-75.277-167.726-242.128-169.117-166.85 1.391-221.018 78.536-242.131 169.117-9.714 41.703-9.547 110.877 35.375 134.798 43.657 23.245 97.587-35.395 111.867 16.064 9.494 34.236-36.462 74.318-18.872 104.155 16.371 27.778 54.224 28.358 113.76 28.338 59.538.021 97.391-.559 113.762-28.338 17.588-29.838-28.364-69.919-18.865-104.155 14.27-51.461 68.203 7.18 111.856-16.064 44.928-23.921 45.097-93.095 35.376-134.798z" fill="#fbdfb3"></path></g><g><path d="m498.128 198.881c-6.458-27.707-16.017-54.149-30.936-77.559 12.903 29.028 25.078 58.458 26.439 90.368.68 15.887-1.853 32.446-10.901 45.878-10.486 15.58-27.684 26.58-46.849 26.452-21.017-.14-40.078-10.937-60.932-12.098-16.66-.928-36.853 4.565-49.396 16.16-20.056 18.549-16.672 42.781-8.379 66.199 6.685 18.884 23.954 47.966 12.253 67.878-18.631 31.692-78.981 27.098-109.174 21.421-12.541-2.362-29.012-4.973-37.593-15.587-7.695-9.519-3.879-23.413-.06-33.69 6.449-17.347 15.622-33.533 21.939-50.965 4.672-12.894 9.21-27.145 7.951-41.047-1.083-11.984-7.548-21.623-18.571-26.679-17.32-7.936-36.215-5.556-54.617-5.807-16.821-.229-34.2-4.065-47.585-14.795-11.794-9.46-19.397-23.058-22.289-37.834-7.194-36.755 8.749-75.441 31.193-103.98 37.527-47.729 94.157-69.022 151.797-83.378-164.032 2.468-217.586 79.136-238.548 169.062-9.715 41.704-9.548 110.878 35.374 134.799 43.657 23.245 97.587-35.395 111.867 16.064 9.494 34.236-36.462 74.318-18.872 104.155 16.371 27.778 54.224 28.358 113.76 28.338 59.538.021 97.391-.559 113.762-28.338 17.588-29.838-28.364-69.919-18.865-104.155 14.27-51.461 68.203 7.18 111.856-16.064 44.928-23.921 45.097-93.095 35.376-134.798z" fill="#f4b79f"></path></g><path d="m506.623 196.9c-12.663-54.337-35.342-94.483-69.33-122.731-42.212-35.084-101.49-52.462-181.366-53.128-79.731.666-139.008 18.044-181.221 53.128-33.989 28.248-56.667 68.394-69.331 122.733-9.493 40.741-11.797 117.02 39.771 144.477 8.513 4.535 17.789 6.737 28.361 6.737 13.205 0 26.258-3.532 37.774-6.65 9.26-2.506 18.009-4.875 24.866-4.875 6.202 0 12.589 1.197 16.556 15.486.129.464.241.931.343 1.4-.737 10.075-2.853 21.102-6.369 32.922-1.461 3.454-3.047 6.966-4.653 10.52-9.281 20.54-18.876 41.778-7.303 61.411 19.231 32.63 63.214 32.63 118.893 32.63h4.767c55.682 0 99.665 0 118.896-32.629 11.571-19.633 1.978-40.869-7.298-61.407-7.366-16.306-14.325-31.706-10.678-44.849 3.962-14.287 10.35-15.484 16.554-15.484 6.855 0 15.601 2.367 24.864 4.875 11.511 3.116 24.567 6.65 37.774 6.65h.002c10.565 0 19.846-2.202 28.357-6.737 51.576-27.46 49.267-103.738 39.771-144.479zm-155.603 201.975c3.169 5.828 6.111 11.779 8.602 17.928 5.028 12.41 7.858 23.79 2.626 32.667-13.512 22.927-46.578 24.043-103.865 24.043h-2.388v.002h-2.38c-57.285 0-90.351-1.116-103.863-24.043-5.644-9.569-1.914-22.048 3.837-35.588 1.945-4.578 4.079-9.075 6.272-13.54 4.862-9.9 11.619-27.547 10.938-50.144-.958-31.806-16.059-53.769-21.907-61.458-28.199-25.842-69.642-19.63-99.019-5.199-4.326 2.123-6.107 7.353-3.984 11.676 2.121 4.324 7.347 6.103 11.675 3.983 24.211-11.891 57.816-17.505 79.541 2.402 5.759 5.277 9.989 12.049 12.69 20.106-4.037-1.696-8.582-2.566-13.65-2.566-9.178 0-19.012 2.661-29.424 5.48-10.979 2.972-22.328 6.044-33.217 6.044-7.639 0-14.237-1.534-20.161-4.688-42.314-22.533-38.766-91.697-30.978-125.119 17.44-74.838 59.767-160.924 233.561-162.376 173.936 1.449 216.265 87.537 233.705 162.374 7.791 33.422 11.34 102.585-30.978 125.119-5.924 3.156-12.521 4.688-20.159 4.688-10.888 0-22.24-3.071-33.217-6.044-10.412-2.819-20.248-5.48-29.422-5.48-6.223 0-11.668 1.296-16.333 3.85 2.672-8.627 7.052-15.832 13.116-21.389 21.724-19.911 55.336-14.294 79.543-2.402 4.462 2.191 9.904.217 11.878-4.427 1.842-4.332-.281-9.337-4.516-11.394-16.469-8-65.181-25.512-98.693 5.36-5.83 7.193-18.51 24.849-21.553 50.859-3.176 27.177 5.908 48.582 11.723 59.276z" fill="#61263d"></path><g><g><path d="m446.691 235.958c-7.946 0-14.713-6.07-15.43-14.136-.125-1.403-.275-2.796-.456-4.178-1.111-8.493 4.875-16.278 13.366-17.388 8.508-1.121 16.281 4.876 17.39 13.367.234 1.804.432 3.62.595 5.451.761 8.532-5.543 16.063-14.074 16.822-.468.04-.93.062-1.391.062z" fill="#fff"></path></g><g><path d="m439.897 197.399c-6.791 0-13.022-4.491-14.932-11.35-6.373-22.866-24.012-44.009-49.671-59.535-7.329-4.434-9.672-13.97-5.239-21.298 4.432-7.325 13.968-9.677 21.297-5.24 32.442 19.632 54.992 47.243 63.491 77.749 2.297 8.251-2.526 16.803-10.778 19.101-1.392.389-2.792.573-4.168.573z" fill="#fff"></path></g></g><g><g><path d="m209.274 422.825c.216-4.307 3.882-7.618 8.189-7.408 4.308.22 7.62 3.883 7.404 8.19-.213 4.304-3.881 7.622-8.191 7.407-4.302-.221-7.62-3.886-7.402-8.189z" fill="#61263d"></path></g><g><path d="m180.716 413.571c.213-4.306 3.881-7.62 8.187-7.402 4.308.215 7.62 3.881 7.402 8.186-.218 4.304-3.881 7.621-8.185 7.403-4.308-.213-7.624-3.882-7.404-8.187z" fill="#61263d"></path></g><g><path d="m195.281 390.241c.222-4.304 3.887-7.616 8.194-7.403 4.304.218 7.618 3.883 7.402 8.19-.216 4.303-3.881 7.62-8.189 7.403-4.305-.215-7.62-3.886-7.407-8.19z" fill="#61263d"></path></g></g></g></svg>