<!-- icon666.com - MILLIONS OF FREE VECTOR ICONS --><svg id="Capa_1" enable-background="new 0 0 512 512" viewBox="0 0 512 512" xmlns="http://www.w3.org/2000/svg"><g><path d="m387.692 0h-113.384c-31.674 0-61.485 12.3-83.942 34.635-2.937 2.921-2.95 7.669-.029 10.606s7.67 2.949 10.607.028c19.626-19.519 45.681-30.269 73.364-30.269h113.385c57.368 0 104.041 46.673 104.041 104.041 0 26.362-21.447 47.81-47.81 47.81h-21.862c-3.845 0-7.447-1.509-10.143-4.249-2.31-2.349-3.711-5.353-4.073-8.605 1.607.348 3.263.543 4.951.543 12.976 0 23.532-10.557 23.532-23.532 0-36.979-30.084-67.062-67.062-67.062h-76.533c-36.978 0-67.062 30.084-67.062 67.062 0 12.976 10.556 23.532 23.532 23.532 1.691 0 3.345-.195 4.95-.54-.362 3.249-1.764 6.252-4.074 8.602-2.697 2.74-6.3 4.25-10.146 4.25h-21.856c-26.362 0-47.81-21.447-47.81-47.811 0-16.768 3.864-32.771 11.484-47.565 1.897-3.683.449-8.205-3.233-10.103-3.683-1.896-8.206-.447-10.102 3.233-8.602 16.702-13.149 35.525-13.149 54.436 0 34.633 28.176 62.81 62.81 62.81h21.856c7.899 0 15.3-3.101 20.839-8.73 1.793-1.822 3.318-3.837 4.562-5.996 5.131 7.101 8.277 15.567 8.958 24.334l2.26 29.061c-12.185-4.22-25.258-6.519-38.86-6.519h-113.385c-65.64-.002-119.041 53.399-119.041 119.039 0 34.633 28.176 62.81 62.81 62.81h21.856c7.899 0 15.3-3.101 20.839-8.73 1.793-1.822 3.318-3.837 4.562-5.996 5.131 7.101 8.277 15.567 8.958 24.334l6.426 82.617c1.043 13.415 12.402 23.924 25.858 23.924h48.848c13.457 0 24.815-10.509 25.858-23.925l2.481-31.903c.321-4.13-2.766-7.738-6.896-8.06-4.117-.327-7.737 2.766-8.059 6.896l-2.481 31.903c-.44 5.657-5.229 10.089-10.903 10.089h-48.848c-5.674 0-10.463-4.432-10.903-10.089l-6.426-82.616c-1.076-13.84-6.813-27.118-16.152-37.388l-3.728-4.1c1.43-19.887 18.054-35.633 38.299-35.633h2.242v52.11c0 4.143 3.358 7.5 7.5 7.5s7.5-3.357 7.5-7.5v-52.11h29.428c20.244 0 36.867 15.745 38.299 35.63l-3.732 4.103c-9.337 10.271-15.073 23.547-16.149 37.385l-1.224 15.744c-.321 4.129 2.767 7.737 6.896 8.059.198.016.395.022.59.022 3.878 0 7.164-2.986 7.469-6.919l1.224-15.743c.682-8.766 3.827-17.23 8.956-24.331 1.244 2.158 2.768 4.174 4.561 5.996 5.538 5.63 12.938 8.73 20.836 8.73h21.862c34.633 0 62.81-28.177 62.81-62.811 0-12.19-1.845-23.958-5.266-35.04h3.956c13.457 0 24.815-10.509 25.858-23.925l1.941-24.953c.321-4.13-2.766-7.738-6.896-8.06-4.126-.312-7.737 2.767-8.059 6.896l-1.941 24.953c-.44 5.657-5.229 10.089-10.903 10.089h-9.735c-11.169-24.008-30.108-43.698-53.572-55.811l-2.87-36.894c-1.076-13.84-6.813-27.118-16.152-37.388l-3.728-4.1c1.412-19.637 17.642-35.226 37.541-35.614v22.235c0 4.143 3.358 7.5 7.5 7.5s7.5-3.357 7.5-7.5v-22.254h32.428c20.244 0 36.867 15.745 38.299 35.63l-3.732 4.103c-9.337 10.271-15.073 23.547-16.149 37.384l-1.765 22.688c-.321 4.13 2.766 7.738 6.896 8.06.198.016.395.022.59.022 3.878 0 7.163-2.986 7.469-6.918l1.765-22.688c.682-8.766 3.827-17.23 8.956-24.331 1.244 2.158 2.768 4.174 4.561 5.996 5.538 5.63 12.938 8.73 20.836 8.73h21.862c34.633 0 62.81-28.177 62.81-62.811-.001-65.637-53.402-119.038-119.042-119.038zm-45.959 333.041c0 26.362-21.447 47.81-47.81 47.81h-21.862c-3.845 0-7.447-1.509-10.143-4.249-2.31-2.349-3.711-5.353-4.073-8.605 1.607.348 3.263.543 4.951.543 12.976 0 23.532-10.557 23.532-23.532 0-36.979-30.084-67.062-67.062-67.062h-76.533c-5.609 0-11.187.695-16.577 2.066-4.014 1.021-6.44 5.104-5.419 9.117 1.021 4.015 5.105 6.438 9.118 5.42 4.183-1.064 8.516-1.604 12.879-1.604h76.533c28.707 0 52.062 23.355 52.062 52.062 0 4.705-3.827 8.532-8.532 8.532-3.598 0-6.828-2.274-8.038-5.659-7.066-20.121-27.235-35.847-50.424-35.706h-46.67c-22.514-.099-43.1 14.914-50.377 35.573-1.173 3.464-4.422 5.792-8.084 5.792-4.705 0-8.532-3.827-8.532-8.532 0-12.874 4.736-25.231 13.335-34.795 2.77-3.08 2.518-7.822-.562-10.592-3.08-2.769-7.823-2.519-10.592.562-11.079 12.322-17.181 28.241-17.181 44.824 0 12.976 10.556 23.532 23.532 23.532 1.691 0 3.345-.195 4.95-.54-.362 3.249-1.764 6.252-4.074 8.602-2.697 2.74-6.3 4.25-10.146 4.25h-21.857c-26.362 0-47.81-21.447-47.81-47.811 0-57.368 46.672-104.04 104.041-104.04h113.385c57.368.001 104.04 46.674 104.04 104.042zm12.602-234.867h-46.67c-22.514-.099-42.6 14.824-50.377 35.573-1.284 3.425-4.422 5.792-8.084 5.792-4.705 0-8.532-3.827-8.532-8.532 0-28.707 23.355-52.062 52.062-52.062h76.533c28.707 0 52.062 23.355 52.062 52.062 0 4.705-3.827 8.532-8.532 8.532-3.598 0-6.828-2.274-8.038-5.659-7.066-20.121-27.235-35.847-50.424-35.706z"></path><path d="m338.5 185.763v50c0 4.143 3.358 7.5 7.5 7.5s7.5-3.357 7.5-7.5v-50c0-4.143-3.358-7.5-7.5-7.5s-7.5 3.357-7.5 7.5z"></path><path d="m198 393.5c-4.142 0-7.5 3.357-7.5 7.5v26c0 4.143 3.358 7.5 7.5 7.5s7.5-3.357 7.5-7.5v-26c0-4.143-3.358-7.5-7.5-7.5z"></path><path d="m167.407 422.596c-4.142 0-7.5 3.357-7.5 7.5v39.809c0 4.143 3.358 7.5 7.5 7.5s7.5-3.357 7.5-7.5v-39.809c0-4.143-3.358-7.5-7.5-7.5z"></path></g></svg>