<!-- icon666.com - MILLIONS OF FREE VECTOR ICONS --><svg xmlns="http://www.w3.org/2000/svg" viewBox="0 0 64 64"><g id="Layer_16" data-name="Layer 16"><path d="M38,12.443a14.192,14.192,0,0,0-.9-4.856h0A8.611,8.611,0,0,0,29.033,2h0a8.609,8.609,0,0,0-3.851.909h0a22.348,22.348,0,0,0-9.539,9.133L14,15a21.576,21.576,0,0,0,8.913,4.437L27.849,20h4.7Z" style="fill:#77534a"></path><path d="M37.8,10.276A14.184,14.184,0,0,0,37.1,7.587h0A8.6,8.6,0,0,0,30.54,2.145a8.6,8.6,0,0,0-2.358.764,22.348,22.348,0,0,0-9.539,9.133h0a3.771,3.771,0,0,0,1.437,5.1,21.6,21.6,0,0,0,5.833,2.3l4.607.526a19.372,19.372,0,0,1,.857-2.792A12.954,12.954,0,0,1,37.8,10.276Z" style="fill:#8f6659"></path><path d="M29.667,16.8A26.919,26.919,0,0,0,20,15H14a21.582,21.582,0,0,0,8.913,4.437L27.849,20h4.7l1.168-1.62-.571-.246Z" style="fill:#6b4740"></path><path d="M38.957,52.387l-4.17-1.251a10.976,10.976,0,0,1-5.98-4.426,10.752,10.752,0,0,1-1.761-4.975l.19-15.5q.336-4.968,1.153-9.889A26.982,26.982,0,0,0,24.1,15.32a37.074,37.074,0,0,0-1.931,8.793L18,48l9,11H40Z" style="fill:#f7c966"></path><path d="M47.716,26.456A124.99,124.99,0,0,1,50,50.243h0A11.757,11.757,0,0,1,38.243,62h0A4.243,4.243,0,0,1,34,57.757h0a4.242,4.242,0,0,1,2.52-3.877h0A10.912,10.912,0,0,0,43,43.908h0A95.589,95.589,0,0,0,41.7,28.2L41.5,27Z" style="fill:#fdd790"></path><path d="M50,50.243a124.99,124.99,0,0,0-2.284-23.787l-4.042.353L43.5,27l.2,1.2A95.589,95.589,0,0,1,45,43.908a10.912,10.912,0,0,1-6.48,9.972h0A4.242,4.242,0,0,0,36,57.757h0a4.234,4.234,0,0,0,3.523,4.17A11.756,11.756,0,0,0,50,50.243Z" style="fill:#fddfb0"></path><path d="M32,41l-2.035.339a48.5,48.5,0,0,1-6.961.65L16.2,41.655a48.569,48.569,0,0,1-6-1.105L8,40l5-4H30Z" style="fill:#6b4740"></path><path d="M17.987,38.02l-1.448,2.9A14.6,14.6,0,0,0,15,47.448h0a14.6,14.6,0,0,0,3.689,9.7h0A14.449,14.449,0,0,0,29.486,62h0A3.511,3.511,0,0,0,33,58.489h0a2.311,2.311,0,0,0-1.356-2.1l-4.554-2.07A8.683,8.683,0,0,1,22,46.409h0a8.691,8.691,0,0,1,.445-2.746l1.736-5.206L22,34Z" style="fill:#fdd790"></path><path d="M33,58.489a2.311,2.311,0,0,0-1.356-2.1l-4.554-2.07a8.686,8.686,0,0,1-4.645-10.651l1.736-5.206-1.522-3.11L19.99,38.02l-1.448,2.9A14.6,14.6,0,0,0,20.689,57.15a14.444,14.444,0,0,0,9.489,4.78A3.512,3.512,0,0,0,33,58.489Z" style="fill:#fddfb0"></path><path d="M32,24.324V26l2.662.444A40.913,40.913,0,0,0,41.384,27h0A37.112,37.112,0,0,0,56,24h0l-2.288-5.95A11,11,0,0,0,43.446,11h0a11,11,0,0,0-10.211,6.914h0A17.25,17.25,0,0,0,32,24.324Z" style="fill:#8f6659"></path><path d="M55.7,23.226l-1.99-5.176a10.981,10.981,0,0,0-14.788-6.07,10.979,10.979,0,0,0-2.69,3.934A17.269,17.269,0,0,0,35,22.324a1.979,1.979,0,0,0,1.653,1.952l1.009.168A40.913,40.913,0,0,0,44.384,25,37.1,37.1,0,0,0,55.7,23.226Z" style="fill:#a17767"></path><path d="M32,41V37.995a22.37,22.37,0,0,0-.788-5.885h0A11.007,11.007,0,0,0,20.593,24h0A11.006,11.006,0,0,0,9.916,32.337L8,40l3.1-.886A28.967,28.967,0,0,1,19.056,38h0a28.968,28.968,0,0,1,11.407,2.341Z" style="fill:#8f6659"></path><path d="M19.056,38a28.977,28.977,0,0,1,11.408,2.341L32,41V37.995a22.37,22.37,0,0,0-.788-5.885h0a11,11,0,0,0-8.62-7.922,11,11,0,0,0-8.676,8.149l-1.62,6.48A28.93,28.93,0,0,1,19.056,38Z" style="fill:#a17767"></path><path d="M20.593,23A11.988,11.988,0,0,0,8.946,32.094L7.03,39.758a1,1,0,0,0,.727,1.212l2.2.55c1.606.4,3.243.7,4.881.939a15.507,15.507,0,0,0,3.1,15.355A15.464,15.464,0,0,0,29.489,63a4.518,4.518,0,0,0,4.16-2.77A5.226,5.226,0,0,0,38.243,63,12.772,12.772,0,0,0,51,50.243a126.368,126.368,0,0,0-2.122-22.987,38.009,38.009,0,0,0,7.516-2.337,1,1,0,0,0,.539-1.278l-2.288-5.95A12.013,12.013,0,0,0,38.9,10.89a15.207,15.207,0,0,0-.867-3.654,9.611,9.611,0,0,0-13.3-5.221,23.237,23.237,0,0,0-9.964,9.541l-1.644,2.958a1,1,0,0,0,.234,1.254,22.694,22.694,0,0,0,8.392,4.4q-.285,1.423-.458,2.865C21.061,23.016,20.829,23,20.593,23Zm0,2a10.028,10.028,0,0,1,9.654,7.374A21.352,21.352,0,0,1,31,37.995v1.489l-.143-.061a29.962,29.962,0,0,0-20.032-1.271l-1.435.41,1.5-5.982A9.991,9.991,0,0,1,20.593,25Zm8.715-7.271,2.589,1c-.03.093-.067.183-.1.276H28.994c.062-.438.132-.873.2-1.31C29.231,17.7,29.27,17.714,29.308,17.729ZM28.736,21h2.573A18.248,18.248,0,0,0,31,24.324V26a1,1,0,0,0,.835.986l2.662.444a42.118,42.118,0,0,0,6.153.555l.063.379A94.8,94.8,0,0,1,42,43.908a9.906,9.906,0,0,1-3.294,7.359l-3.631-1.089a9.994,9.994,0,0,1-5.436-4.023,9.754,9.754,0,0,1-1.447-3.549c.648-.082,1.295-.174,1.937-.281l2.035-.339A1,1,0,0,0,33,41V37.995a23.391,23.391,0,0,0-.823-6.148,11.97,11.97,0,0,0-3.9-6.048C28.39,24.2,28.544,22.6,28.736,21ZM24.852,39.608a27.887,27.887,0,0,1,3.438.968c-1.288.172-2.585.291-3.88.357Zm-12.845.311a28.021,28.021,0,0,1,4.3-.767l-.659,1.317c-.013.027-.022.057-.036.085C14.4,40.391,13.2,40.175,12.007,39.919ZM29.489,61A13.522,13.522,0,0,1,16,47.447a13.671,13.671,0,0,1,1.437-6.084l1.173-2.347c.149,0,.3-.016.446-.016a28.118,28.118,0,0,1,3.8.265L21.5,43.347a9.683,9.683,0,0,0,5.179,11.877l4.555,2.07a1.317,1.317,0,0,1,.769,1.2A2.513,2.513,0,0,1,29.489,61ZM33.2,56.337a3.289,3.289,0,0,0-1.144-.863L27.5,53.4A7.68,7.68,0,0,1,23.4,43.979l.339-1.018c.823-.029,1.647-.076,2.47-.147a11.773,11.773,0,0,0,1.771,4.451A12,12,0,0,0,34.5,52.094l2.078.623c-.157.08-.3.177-.465.249A5.245,5.245,0,0,0,33.2,56.337ZM49,50.243A10.769,10.769,0,0,1,38.243,61a3.243,3.243,0,0,1-1.317-6.206A11.922,11.922,0,0,0,44,43.908a96.816,96.816,0,0,0-1.314-15.873l-.011-.067a38.166,38.166,0,0,0,4.231-.372A124.251,124.251,0,0,1,49,50.243Zm3.778-31.834,1.938,5.039A35.873,35.873,0,0,1,41.384,26a40.133,40.133,0,0,1-6.558-.542L33,25.153v-.829a16.186,16.186,0,0,1,1.163-6.039A9.95,9.95,0,0,1,43.446,12,10.058,10.058,0,0,1,52.778,18.409ZM25.629,3.8a7.61,7.61,0,0,1,10.53,4.134,13.183,13.183,0,0,1,.811,3.955,11.936,11.936,0,0,0-4.359,4.963l-2.586-.994A27.8,27.8,0,0,0,20,14H15.7l.818-1.472A21.246,21.246,0,0,1,25.629,3.8ZM17.119,16H20a25.975,25.975,0,0,1,2.78.164q-.321,1.018-.584,2.052A20.707,20.707,0,0,1,17.119,16Zm7.669.447c.836.157,1.662.363,2.481.6-.387,2.463-.688,4.956-.9,7.445a11.975,11.975,0,0,0-3.1-1.181A36.077,36.077,0,0,1,24.788,16.447Z"></path></g></svg>