<!-- icon666.com - MILLIONS OF FREE VECTOR ICONS --><svg xmlns="http://www.w3.org/2000/svg" xmlns:xlink="http://www.w3.org/1999/xlink" version="1.1" id="Layer_1" x="0px" y="0px" viewBox="0 0 505.466 505.466" style="enable-background:new 0 0 505.466 505.466;" xml:space="preserve"><g><g><path style="fill:#E6E6E6;" d="M379.109,432.585c-19.54,65.38-126.38,65.38-126.38,65.38s-106.83,0-126.37-65.38 c-15.81-52.85,19.37-117.34,33.42-170.54c3.34-12.61,5.48-24.58,5.48-35.61l87.47-141.79l87.48,141.79c0,11.03,2.14,23,5.48,35.61 C359.739,315.245,394.919,379.735,379.109,432.585z"></path><path style="fill:#CCCCCC;" d="M252.729,257.376c33,0,64.42,2.45,92.96,4.67c-3.34-12.61-5.48-24.58-5.48-35.61l-87.48-141.79 l-0.009,0.019l0.006-0.02l-87.47,141.795c0,57.59-58.45,140.78-38.9,206.15c19.54,65.38,126.37,65.38,126.37,65.38 s-47.75,0-56.49-65.38c-5.575-41.699,3.032-90.641,9.998-135.568c3.526-22.741,23.062-39.631,46.075-39.645 C252.448,257.376,252.589,257.376,252.729,257.376z"></path><path style="fill:#AD7136;" d="M489.274,170.569C489.274,80.509,383.371,7.5,252.733,7.5S16.193,80.509,16.193,170.569 s105.903,51.619,236.54,51.619S489.274,260.63,489.274,170.569z"></path><path style="fill:#8C531F;" d="M147.335,170.57c0,33.696,6.603,49.409,17.926,55.865c-87.337,6.75-149.068,12.888-149.068-55.865 c0-90.06,105.898-163.068,236.541-163.068C194.52,7.502,147.335,80.51,147.335,170.57z"></path></g><g><path d="M424.229,49.073c-3.411-2.352-8.082-1.492-10.432,1.919c-2.351,3.411-1.491,8.081,1.919,10.432 c42.597,29.359,66.057,68.121,66.057,109.145c0,17.408-4.22,29.775-12.901,37.809c-20.456,18.93-65.736,15.414-123.062,10.965 c-28.107-2.182-59.964-4.655-93.077-4.655s-64.97,2.473-93.077,4.655c-57.327,4.45-102.605,7.964-123.062-10.965 c-8.681-8.034-12.901-20.401-12.901-37.809C23.693,84.788,126.44,15,252.733,15c48.971,0,95.706,10.399,135.154,30.073 c3.706,1.848,8.21,0.343,10.059-3.364c1.849-3.707,0.343-8.21-3.364-10.059C353.065,10.944,304.015,0,252.733,0 c-64.688,0-125.6,17.433-171.516,49.087C34.449,81.329,8.693,124.472,8.693,170.569c0,21.82,5.794,37.789,17.713,48.818 c15.433,14.282,39.4,18.446,69.619,18.445c18.319,0,38.943-1.531,61.34-3.267c-1.874,20.552-10.274,44.528-19.115,69.741 c-15.411,43.953-31.347,89.403-19.081,130.431c0.972,3.252,3.954,5.354,7.183,5.354c0.711,0,1.435-0.102,2.151-0.316 c3.968-1.187,6.224-5.365,5.037-9.334c-10.872-36.363,4.246-79.477,18.865-121.17c9.5-27.094,18.52-52.823,20.108-75.873 c24.843-1.887,52.163-3.709,80.22-3.709c28.057,0,55.377,1.822,80.22,3.709c1.587,23.05,10.608,48.779,20.108,75.873 c14.619,41.694,29.736,84.808,18.865,121.17c-17.708,59.229-118.184,60.025-119.192,60.026c-0.715,0-71.917-0.411-105.187-35.918 c-2.832-3.023-7.578-3.177-10.601-0.345c-3.023,2.833-3.177,7.579-0.345,10.601c37.667,40.2,112.947,40.662,116.133,40.662 c1.133,0,28.082-0.096,57.884-8.451c40.744-11.422,66.914-32.958,75.68-62.278c12.267-41.028-3.669-86.478-19.081-130.431 c-8.84-25.213-17.24-49.19-19.115-69.741c59.338,4.596,106.171,7.76,130.959-15.178c11.919-11.03,17.713-26.999,17.713-48.818 C496.773,124.464,471.01,81.316,424.229,49.073z"></path><path d="M328.186,427.193c-6.451,1.208-8.092,9.994-2.7,13.59c2.754,1.837,6.52,1.614,9.035-0.538 c2.539-2.173,3.337-5.886,1.905-8.907C334.976,428.279,331.514,426.511,328.186,427.193z"></path><path d="M333.146,404.854c-1.218-2.886-4.15-4.782-7.297-4.621c-3,0.153-5.675,2.137-6.687,4.963 c-1.039,2.901-0.153,6.226,2.188,8.229c2.469,2.112,6.132,2.364,8.879,0.636C333.26,412.155,334.543,408.16,333.146,404.854z"></path><path d="M342.876,420.604c3.793,5.755,13.026,3.404,13.694-3.427c0.286-2.927-1.221-5.847-3.796-7.279 c-2.907-1.616-6.603-1.106-8.968,1.235C341.283,413.631,340.937,417.658,342.876,420.604z"></path></g></g></svg>