<!-- icon666.com - MILLIONS OF FREE VECTOR ICONS --><svg id="Layer_1" viewBox="0 0 512 512" xmlns="http://www.w3.org/2000/svg" data-name="Layer 1"><path d="m332.67 185.13a443.679 443.679 0 0 1 -44.77 7.84 277.041 277.041 0 0 1 -53.84 1.25 366.656 366.656 0 0 1 -45.02-6.41c-21.09-4.19-44.71-10.24-73.1-18.13-14.05-3.9-29.27-8.26-45.92-13.07-51.17-14.77-51.17-91.74 0-106.52 177.22-51.17 188.71-39.36 368.92 0 59.14 12.92 51.17 91.75 0 106.52-14.97 4.32-28.77 8.28-41.61 11.87-24.65 6.89-45.74 12.44-64.66 16.65z" fill="#e1b7a3"></path><path d="m397.33 168.48-26.66 15.77a153.662 153.662 0 0 0 -71.24 96.65l-.37 1.55h-17.17a152.979 152.979 0 0 1 43.6-90.13l7.18-7.19c18.92-4.21 40.01-9.76 64.66-16.65z" fill="#e5d5b5"></path><path d="m332.67 185.13-7.18 7.19a152.979 152.979 0 0 0 -43.6 90.13h-16.87l.64-10.85a189.769 189.769 0 0 1 22.24-78.63 443.679 443.679 0 0 0 44.77-7.84z" fill="#cc9e8b"></path><path d="m299.06 282.45v171.77a41.78 41.78 0 0 1 -83.56 0v-171.77z" fill="#fbedce"></path><path d="m287.9 192.97a189.769 189.769 0 0 0 -22.24 78.63l-.64 10.85h-13.4l-.55-13.81a207.154 207.154 0 0 0 -17.01-74.42 277.041 277.041 0 0 0 53.84-1.25z" fill="#e5d5b5"></path><path d="m251.07 268.64.55 13.81h-20.65a175.007 175.007 0 0 0 -40.51-92.97l-1.42-1.67a366.656 366.656 0 0 0 45.02 6.41 207.154 207.154 0 0 1 17.01 74.42z" fill="#cc9e8b"></path><path d="m230.97 282.45h-15.47a153.6 153.6 0 0 0 -73.57-98l-25.99-14.77c28.39 7.89 52.01 13.94 73.1 18.13l1.42 1.67a175.007 175.007 0 0 1 40.51 92.97z" fill="#e5d5b5"></path><path d="m446.3 99.38c.32 9.68-5.35 21.21-16.81 24.52-89.19 25.76-132.7 37.04-175.01 37.04s-85.82-11.28-175.02-37.04c-12.78-3.69-13.78-16.66-13.78-20.55s1-16.86 13.78-20.55c84.82-24.49 126.38-32.75 164.7-32.75 38.17 0 77.05 8.69 141.45 23.09 14.08 3.15 29.35 6.56 46.06 10.21 6.1 1.33 14.25 4.44 14.63 16.03z" fill="#c79a83"></path><path d="m328.29 98.58c7.73 1.62 7.88 12.6.2 14.45-30.65 7.36-52.95 10.77-74.01 10.77-22.89 0-47.24-4.03-82.16-12.77-7.57-1.9-7.46-12.71.15-14.41 30.3-6.78 51.76-9.44 71.69-9.44 23.96 0 49.54 4.13 84.13 11.4z" fill="#b28672"></path><path d="m264.06 194.22a366.656 366.656 0 0 1 -45.02-6.41c-21.09-4.19-44.71-10.24-73.1-18.13-14.05-3.9-29.27-8.26-45.92-13.07-51.17-14.77-51.17-91.74 0-106.52 73.7-21.279 118.735-31.666 159.164-33.71-49.6-2.49-96.939 7.081-189.164 33.71-51.17 14.78-51.17 91.75 0 106.52 16.65 4.81 31.87 9.17 45.92 13.07 28.39 7.89 52.01 13.94 73.1 18.13a366.656 366.656 0 0 0 45.02 6.41 271.859 271.859 0 0 0 35.374.335c-1.786-.099-3.574-.201-5.374-.335z" fill="#c69987"></path><path d="m245.5 454.22v-171.77h-30v171.77a41.777 41.777 0 0 0 56.78 38.993 41.792 41.792 0 0 1 -26.78-38.993z" fill="#e0cfad"></path><g fill="#d4e1f4"><path d="m193.765 438a5 5 0 0 1 -5-5v-88.11a5 5 0 0 1 10 0v88.11a5 5 0 0 1 -5 5z"></path><path d="m193.765 330.506a5 5 0 0 1 -5-5v-12.63a5 5 0 0 1 10 0v12.63a5 5 0 0 1 -5 5z"></path></g></svg>