<!-- icon666.com - MILLIONS OF FREE VECTOR ICONS --><svg version="1.1" id="Capa_1" xmlns="http://www.w3.org/2000/svg" xmlns:xlink="http://www.w3.org/1999/xlink" x="0px" y="0px" viewBox="0 0 459.248 459.248" style="enable-background:new 0 0 459.248 459.248;" xml:space="preserve"><g><line style="fill:none;stroke:#307C11;stroke-width:20;stroke-linecap:round;stroke-linejoin:round;stroke-miterlimit:10;" x1="133.051" y1="130.672" x2="133.051" y2="88"></line><line style="fill:none;stroke:#307C11;stroke-width:20;stroke-linecap:round;stroke-linejoin:round;stroke-miterlimit:10;" x1="336.185" y1="108.672" x2="336.185" y2="66"></line><polyline style="fill:none;stroke:#307C11;stroke-width:20;stroke-linecap:round;stroke-linejoin:round;stroke-miterlimit:10;" points=" 74.185,50 102.144,82.626 76.185,112 "></polyline><line style="fill:none;stroke:#307C11;stroke-width:20;stroke-linecap:round;stroke-linejoin:round;stroke-miterlimit:10;" x1="126.185" y1="48" x2="150.209" y2="83.745"></line><polyline style="fill:none;stroke:#307C11;stroke-width:20;stroke-linecap:round;stroke-linejoin:round;stroke-miterlimit:10;" points=" 172.185,42 196.308,81.594 176.185,114 "></polyline><polyline style="fill:none;stroke:#307C11;stroke-width:20;stroke-linecap:round;stroke-linejoin:round;stroke-miterlimit:10;" points=" 222.185,36 240.185,74 222.185,112 "></polyline><polyline style="fill:none;stroke:#307C11;stroke-width:20;stroke-linecap:round;stroke-linejoin:round;stroke-miterlimit:10;" points=" 272.185,30 286.485,69.61 272.185,106 "></polyline><line style="fill:none;stroke:#307C11;stroke-width:20;stroke-linecap:round;stroke-linejoin:round;stroke-miterlimit:10;" x1="312.185" y1="20" x2="335.948" y2="59.019"></line><polyline style="fill:none;stroke:#307C11;stroke-width:20;stroke-linecap:round;stroke-linejoin:round;stroke-miterlimit:10;" points=" 358.185,10 392.099,43.715 374.185,88 "></polyline><path style="fill:none;stroke:#000000;stroke-width:20;stroke-linecap:round;stroke-linejoin:round;stroke-miterlimit:10;" d=" M58.628,77.525c0,0,137.247,29.483,350.704-39.192"></path><path style="fill:#C66626;stroke:#000000;stroke-width:20;stroke-miterlimit:10;" d="M133.051,447.156L133.051,447.156 L133.051,447.156c-51.717-35.157-83.134-96.813-83.134-163.147v-62.913c0-49.94,37.22-90.424,83.134-90.424h0 c45.914,0,83.134,40.484,83.134,90.424v62.913C216.185,350.344,184.767,411.999,133.051,447.156z"></path><g><path style="fill:none;stroke:#000000;stroke-width:20;stroke-linejoin:round;stroke-miterlimit:10;" d="M216.186,263.64 c-10.48-6.25-20.63-12.78-30.46-19.56c-0.01,0-0.01-0.01-0.02-0.01c-18.79-12.95-36.37-26.78-52.66-41.33 c-0.01-0.01-0.01-0.01-0.02-0.02c-17.96-16.02-34.37-32.92-49.18-50.46"></path><path style="fill:none;stroke:#000000;stroke-width:20;stroke-linejoin:round;stroke-miterlimit:10;" d="M50.336,211.98 c9.42,10.94,19.43,21.64,30,32.06c0.01,0.01,0.03,0.03,0.04,0.04c16.23,16.02,33.79,31.37,52.62,45.91 c0.02,0.01,0.03,0.03,0.05,0.04c18.84,14.54,38.95,28.25,60.27,40.98c0.01,0.01,0.03,0.02,0.04,0.03 c5.01,2.98,10.08,5.92,15.22,8.79"></path><path style="fill:none;stroke:#000000;stroke-width:20;stroke-linejoin:round;stroke-miterlimit:10;" d="M176.976,404.81 c-15.18-8.72-29.83-17.9-43.93-27.49c-0.03-0.01-0.05-0.03-0.08-0.05c-21.37-14.53-41.46-30-60.23-46.23 c-0.03-0.02-0.05-0.05-0.08-0.07c-7.15-6.18-14.1-12.47-20.85-18.86"></path></g><g><path style="fill:none;stroke:#000000;stroke-width:20;stroke-linejoin:round;stroke-miterlimit:10;" d="M49.916,263.63 c10.48-6.25,20.63-12.78,30.46-19.55c0.01,0,0.01-0.01,0.02-0.01c18.79-12.95,36.36-26.78,52.65-41.33 c0.01-0.01,0.01-0.01,0.02-0.02c17.96-16.02,34.37-32.92,49.18-50.46"></path><path style="fill:none;stroke:#000000;stroke-width:20;stroke-linejoin:round;stroke-miterlimit:10;" d="M215.766,211.96 c-9.42,10.94-19.42,21.65-30,32.08c-0.01,0.01-0.03,0.03-0.04,0.04c-16.24,16.02-33.8,31.38-52.63,45.91 c-0.02,0.01-0.03,0.03-0.05,0.04c-18.84,14.54-38.95,28.25-60.27,40.98c-0.01,0.01-0.03,0.02-0.04,0.03 c-5,2.98-10.07,5.91-15.21,8.77"></path><path style="fill:none;stroke:#000000;stroke-width:20;stroke-linejoin:round;stroke-miterlimit:10;" d="M89.106,404.79 c15.19-8.7,29.85-17.88,43.94-27.47c0.02-0.02,0.05-0.03,0.07-0.05c21.37-14.53,41.47-30,60.24-46.23 c0.03-0.02,0.05-0.05,0.08-0.07c7.15-6.19,14.1-12.48,20.86-18.88"></path></g><path style="fill:#C66626;stroke:#000000;stroke-width:20;stroke-miterlimit:10;" d="M336.114,397.796L336.114,397.796 L336.114,397.796c-36.787-31.919-59.134-87.895-59.134-148.119V192.56c0-45.34,26.475-82.094,59.134-82.094h0 c32.659,0,59.134,36.755,59.134,82.094v57.118C395.248,309.901,372.9,365.877,336.114,397.796z"></path><g><path style="fill:none;stroke:#000000;stroke-width:20;stroke-linejoin:round;stroke-miterlimit:10;" d="M395.248,220.998 c-3.822-2.479-7.59-5.002-11.312-7.572c-0.009,0-0.009-0.009-0.018-0.009c-17.059-11.757-33.02-24.313-47.809-37.523 c-0.009-0.009-0.009-0.009-0.018-0.018c-14.98-13.364-28.78-27.409-41.354-41.953"></path><path style="fill:none;stroke:#000000;stroke-width:20;stroke-linejoin:round;stroke-miterlimit:10;" d="M276.978,201.905 c3.677,3.868,7.436,7.699,11.276,11.485c0.009,0.009,0.027,0.027,0.036,0.036c14.735,14.544,30.677,28.48,47.773,41.681 c0.018,0.009,0.027,0.027,0.045,0.036c17.105,13.201,35.362,25.648,54.718,37.205c0.009,0.009,0.027,0.018,0.036,0.027 c0.173,0.1,0.336,0.2,0.508,0.3"></path><path style="fill:none;stroke:#000000;stroke-width:20;stroke-linejoin:round;stroke-miterlimit:10;" d="M369.491,355.555 c-11.476-6.764-22.606-13.836-33.383-21.163c-0.027-0.009-0.045-0.027-0.073-0.045c-19.401-13.192-37.641-27.237-54.682-41.971 c-0.027-0.018-0.045-0.045-0.073-0.064c-0.2-0.173-0.399-0.345-0.59-0.518"></path></g><g><path style="fill:none;stroke:#000000;stroke-width:20;stroke-linejoin:round;stroke-miterlimit:10;" d="M276.978,220.989 c3.822-2.479,7.59-5.002,11.312-7.563c0.009,0,0.009-0.009,0.018-0.009c17.059-11.757,33.011-24.313,47.8-37.523 c0.009-0.009,0.009-0.009,0.018-0.018c14.989-13.364,28.789-27.409,41.354-41.962"></path><path style="fill:none;stroke:#000000;stroke-width:20;stroke-linejoin:round;stroke-miterlimit:10;" d="M395.248,201.905 c-3.677,3.868-7.436,7.699-11.276,11.485c-0.009,0.009-0.027,0.027-0.036,0.036c-14.744,14.544-30.686,28.489-47.782,41.681 c-0.018,0.009-0.027,0.027-0.045,0.036c-17.105,13.201-35.362,25.648-54.718,37.205c-0.009,0.009-0.027,0.018-0.036,0.027 c-0.173,0.1-0.336,0.2-0.508,0.3"></path><path style="fill:none;stroke:#000000;stroke-width:20;stroke-linejoin:round;stroke-miterlimit:10;" d="M302.726,355.546 c11.476-6.764,22.615-13.827,33.383-21.154c0.018-0.018,0.045-0.027,0.064-0.045c19.401-13.192,37.65-27.237,54.691-41.971 c0.027-0.018,0.045-0.045,0.073-0.064c0.2-0.173,0.399-0.345,0.599-0.518"></path></g></g></svg>