<!-- icon666.com - MILLIONS OF FREE VECTOR ICONS --><svg id="Layer_2" viewBox="0 0 64 64" xmlns="http://www.w3.org/2000/svg" xmlns:xlink="http://www.w3.org/1999/xlink" data-name="Layer 2"><linearGradient id="linear-gradient" gradientUnits="userSpaceOnUse" x1="26.37" x2="58.38" y1="25.52" y2="25.52"><stop offset="0" stop-color="#a5ff91"></stop><stop offset=".48" stop-color="#5ed100"></stop><stop offset="1" stop-color="#0c7f00"></stop></linearGradient><linearGradient id="linear-gradient-2" x1="22.38" x2="22.38" xlink:href="#linear-gradient" y1="3.04" y2="48"></linearGradient><linearGradient id="linear-gradient-3" x1="3" x2="61" xlink:href="#linear-gradient" y1="60" y2="60"></linearGradient><path d="m25 47a1 1 0 0 0 -.32-.7 1 1 0 0 0 -.73-.27l-3.24.17a1 1 0 0 0 -.95 1l-.38 12.8a1 1 0 0 0 1 1h4a1 1 0 0 0 1-1z" fill="#44290e"></path><path d="m45 47.05a.94.94 0 0 0 -.32-.7 1 1 0 0 0 -.73-.27l-3.24.17a1 1 0 0 0 -1 1l-.33 12.75a1 1 0 0 0 1 1h4a1 1 0 0 0 1-1z" fill="#44290e"></path><path d="m58.26 46.53-6.21-11.53h2.33a1 1 0 0 0 .89-1.45l-6.27-12.55h1.39a1 1 0 0 0 .89-1.45l-8-16a1 1 0 0 0 -1.79 0l-8 16a1 1 0 0 0 .9 1.45h1.38l-6.29 12.55a1 1 0 0 0 .9 1.45h2.32l-6.21 11.53a1 1 0 0 0 .89 1.47h30a1 1 0 0 0 .85-.49 1 1 0 0 0 .03-.98z" fill="url(#linear-gradient)"></path><path d="m38.26 46.53-6.21-11.53h2.33a1 1 0 0 0 .89-1.45l-6.27-12.55h1.39a1 1 0 0 0 .89-1.45l-8-16a1 1 0 0 0 -1.79 0l-8 16a1 1 0 0 0 .9 1.45h1.38l-6.29 12.55a1 1 0 0 0 .9 1.45h2.32l-6.21 11.53a1 1 0 0 0 .89 1.47h30a1 1 0 0 0 .85-.49 1 1 0 0 0 .03-.98z" fill="url(#linear-gradient-2)"></path><path d="m60 59h-56a1 1 0 0 0 0 2h56a1 1 0 0 0 0-2z" fill="url(#linear-gradient-3)"></path></svg>