<!-- icon666.com - MILLIONS OF FREE VECTOR ICONS --><svg id="Layer_1" viewBox="0 0 48 48" xmlns="http://www.w3.org/2000/svg" xmlns:xlink="http://www.w3.org/1999/xlink" data-name="Layer 1"><linearGradient id="linear-gradient" gradientUnits="userSpaceOnUse" x1="32" x2="38" y1="36" y2="36"><stop offset="0" stop-color="#8a552e"></stop><stop offset="1" stop-color="#543426"></stop></linearGradient><linearGradient id="linear-gradient-2" gradientUnits="userSpaceOnUse" x1="13.304" x2="44.061" y1="20" y2="20"><stop offset="0" stop-color="#37aa79"></stop><stop offset="1" stop-color="#398a70"></stop></linearGradient><linearGradient id="linear-gradient-3" x1="10" x2="16" xlink:href="#linear-gradient" y1="36" y2="36"></linearGradient><linearGradient id="linear-gradient-4" x1="3.339" x2="17.236" xlink:href="#linear-gradient-2" y1="20" y2="20"></linearGradient><linearGradient id="linear-gradient-5" gradientUnits="userSpaceOnUse" x1="20.214" x2="26.33" y1="36" y2="36"><stop offset="0" stop-color="#c2763e"></stop><stop offset="1" stop-color="#8a552e"></stop></linearGradient><linearGradient id="linear-gradient-6" gradientUnits="userSpaceOnUse" x1="12.661" x2="34.036" y1="20" y2="20"><stop offset="0" stop-color="#34ca82"></stop><stop offset="1" stop-color="#37a477"></stop></linearGradient><rect fill="url(#linear-gradient)" height="10" rx="1" width="6" x="32" y="31"></rect><path d="m44.234 24.188a4.5 4.5 0 0 0 -1.53-6.679 4 4 0 0 0 -3.704-5.509c-.042 0-.083 0-.125 0a4 4 0 1 0 -7.749 0c-.044 0-.087 0-.131 0a4 4 0 0 0 -3.7 5.515 4.5 4.5 0 0 0 -1.527 6.677 4.986 4.986 0 0 0 -1.768 3.808 5 5 0 0 0 5 5h12a5 5 0 0 0 5-5 4.987 4.987 0 0 0 -1.766-3.812z" fill="url(#linear-gradient-2)"></path><rect fill="url(#linear-gradient-3)" height="10" rx="1" width="6" x="10" y="31"></rect><path d="m22.234 24.188a4.5 4.5 0 0 0 -1.534-6.679 4 4 0 0 0 -3.7-5.509h-.126a4 4 0 1 0 -7.749 0c-.043 0-.086 0-.13 0a4 4 0 0 0 -3.7 5.515 4.5 4.5 0 0 0 -1.528 6.677 4.989 4.989 0 0 0 -1.767 3.808 5 5 0 0 0 5 5h12a5 5 0 0 0 5-5 4.99 4.99 0 0 0 -1.766-3.812z" fill="url(#linear-gradient-4)"></path><rect fill="url(#linear-gradient-5)" height="12" rx="1" width="6" x="21" y="30"></rect><path d="m34.506 24.039a5.506 5.506 0 0 0 -1.622-6.97 5 5 0 0 0 -3.884-5.969c0-.033 0-.065 0-.1a5 5 0 0 0 -10 0v.1a5.008 5.008 0 0 0 -4 4.9 4.954 4.954 0 0 0 .117 1.076 5.506 5.506 0 0 0 -1.618 6.967 6 6 0 0 0 4.501 9.957h12a6 6 0 0 0 4.506-9.961z" fill="url(#linear-gradient-6)"></path></svg>